<svg width="566" height="161" viewBox="0 0 566 161" fill="none" xmlns="http://www.w3.org/2000/svg">
<rect x="1.5" y="1.5" width="485" height="158" rx="27.5" fill="#F8F8F8" stroke="#979797" stroke-width="3" stroke-linejoin="round" stroke-dasharray="25 11"/>
<path d="M0 29C0 12.9837 12.9837 0 29 0H460.955C490.394 0 501.102 38.7893 475.834 53.8925L400.721 98.7875C396.356 101.397 395.697 107.45 399.415 110.92V110.92C399.463 110.965 399.521 111.021 399.568 111.067C400.14 111.627 404.183 115.577 407 118V118C415.398 125.223 411.226 146 400.15 146H29C12.9837 146 0 133.016 0 117V29Z" fill="url(#paint0_linear_539_2299)"/>
<path d="M71.4085 84H74.7685L64.5925 61.6H61.4245L51.2805 84H54.5765L57.0405 78.4H68.9445L71.4085 84ZM58.1605 75.84L62.9925 64.864L67.8245 75.84H58.1605ZM102.768 61.6V78.304L89.3278 61.6H86.7038V84H89.9038V67.296L103.344 84H105.968V61.6H102.768ZM127.553 75.616C127.553 70.4 124.065 66.88 119.169 66.88C114.273 66.88 110.657 70.496 110.657 75.52C110.657 80.576 114.305 84.192 119.777 84.192C122.593 84.192 124.929 83.232 126.465 81.44L124.769 79.456C123.521 80.832 121.857 81.504 119.873 81.504C116.513 81.504 114.113 79.52 113.729 76.544H127.489C127.521 76.256 127.553 75.872 127.553 75.616ZM119.169 69.472C122.145 69.472 124.289 71.488 124.609 74.336H113.729C114.049 71.456 116.225 69.472 119.169 69.472ZM154.418 67.04L149.362 80.608L144.338 67.04H141.746L136.626 80.544L131.698 67.04H128.786L135.09 84H138.034L142.994 71.136L147.89 84H150.834L157.17 67.04H154.418ZM169.329 84H178.769C185.969 84 190.865 79.456 190.865 72.8C190.865 66.144 185.969 61.6 178.769 61.6H169.329V84ZM172.529 81.216V64.384H178.577C184.113 64.384 187.665 67.776 187.665 72.8C187.665 77.824 184.113 81.216 178.577 81.216H172.529ZM196.854 63.776C198.07 63.776 198.934 62.88 198.934 61.728C198.934 60.64 198.038 59.776 196.854 59.776C195.67 59.776 194.774 60.672 194.774 61.792C194.774 62.912 195.67 63.776 196.854 63.776ZM195.318 84H198.39V67.04H195.318V84ZM225.472 66.88C222.592 66.88 220.224 68.096 218.944 70.016C217.824 67.904 215.648 66.88 213.056 66.88C210.496 66.88 208.416 67.84 207.2 69.568V67.04H204.256V84H207.328V75.264C207.328 71.584 209.344 69.632 212.416 69.632C215.2 69.632 216.8 71.264 216.8 74.592V84H219.872V75.264C219.872 71.584 221.888 69.632 224.96 69.632C227.744 69.632 229.344 71.264 229.344 74.592V84H232.416V74.24C232.416 69.248 229.6 66.88 225.472 66.88ZM253.49 75.616C253.49 70.4 250.002 66.88 245.106 66.88C240.21 66.88 236.594 70.496 236.594 75.52C236.594 80.576 240.242 84.192 245.714 84.192C248.53 84.192 250.866 83.232 252.402 81.44L250.706 79.456C249.458 80.832 247.794 81.504 245.81 81.504C242.45 81.504 240.05 79.52 239.666 76.544H253.426C253.458 76.256 253.49 75.872 253.49 75.616ZM245.106 69.472C248.082 69.472 250.226 71.488 250.546 74.336H239.666C239.986 71.456 242.162 69.472 245.106 69.472ZM266.812 66.88C264.124 66.88 261.948 67.872 260.7 69.6V67.04H257.756V84H260.828V75.264C260.828 71.584 262.94 69.632 266.204 69.632C269.116 69.632 270.78 71.264 270.78 74.592V84H273.852V74.24C273.852 69.248 270.94 66.88 266.812 66.88ZM284.401 84.192C288.913 84.192 291.729 82.24 291.729 79.168C291.729 72.576 280.977 75.84 280.977 71.84C280.977 70.496 282.289 69.504 284.977 69.504C286.641 69.504 288.337 69.856 289.873 70.848L291.185 68.416C289.713 67.456 287.217 66.88 285.009 66.88C280.657 66.88 277.937 68.928 277.937 71.968C277.937 78.72 288.657 75.424 288.657 79.232C288.657 80.672 287.473 81.536 284.625 81.536C282.417 81.536 280.113 80.8 278.673 79.776L277.393 82.208C278.801 83.328 281.585 84.192 284.401 84.192ZM297.104 63.776C298.32 63.776 299.184 62.88 299.184 61.728C299.184 60.64 298.288 59.776 297.104 59.776C295.92 59.776 295.024 60.672 295.024 61.792C295.024 62.912 295.92 63.776 297.104 63.776ZM295.568 84H298.64V67.04H295.568V84ZM311.77 84.192C316.858 84.192 320.57 80.576 320.57 75.52C320.57 70.464 316.858 66.88 311.77 66.88C306.682 66.88 302.938 70.464 302.938 75.52C302.938 80.576 306.682 84.192 311.77 84.192ZM311.77 81.504C308.506 81.504 306.042 79.136 306.042 75.52C306.042 71.904 308.506 69.568 311.77 69.568C315.034 69.568 317.466 71.904 317.466 75.52C317.466 79.136 315.034 81.504 311.77 81.504ZM333.874 66.88C331.186 66.88 329.01 67.872 327.762 69.6V67.04H324.818V84H327.89V75.264C327.89 71.584 330.002 69.632 333.266 69.632C336.178 69.632 337.842 71.264 337.842 74.592V84H340.914V74.24C340.914 69.248 338.002 66.88 333.874 66.88Z" fill="white"/>
<defs>
<linearGradient id="paint0_linear_539_2299" x1="0" y1="73" x2="566" y2="73" gradientUnits="userSpaceOnUse">
<stop stop-color="#F83600"/>
<stop offset="1" stop-color="#F9D423"/>
</linearGradient>
</defs>
</svg>
