<svg width="60" height="59" viewBox="0 0 60 59" fill="none" xmlns="http://www.w3.org/2000/svg">
<g clip-path="url(#clip0_746_366)">
<path d="M2.5 2.5061H57.5V56.0061H2.5V2.5061Z" fill="#2E001E"/>
<path d="M0 0.00610352V58.5061H60V0.00610352H0ZM2.5 2.5061H57.5V56.0061H2.5V2.5061Z" fill="#FF2BC2"/>
<path d="M43.5742 24.5811C43.1992 24.4061 42.7242 24.3311 42.1242 24.3311C38.9742 24.3311 36.8742 26.7561 36.8742 30.7811C36.8742 35.3811 39.0242 37.2311 41.8242 37.2311C42.4242 37.2311 43.0742 37.1561 43.5492 36.9561V24.5811H43.5742ZM32.3742 30.9811C32.3742 25.1561 36.1242 20.6061 42.2742 20.6061C42.7992 20.6061 43.0742 20.6061 43.5742 20.6561V14.1561C43.5742 14.0061 43.6992 13.9061 43.8242 13.9061H47.8492C48.0492 13.9061 48.0992 13.9811 48.0992 14.1061V36.9561C48.0992 37.6311 48.0992 38.4811 48.2242 39.4061C48.2242 39.5811 48.2242 39.6061 48.0742 39.6811C45.9742 40.6811 43.7742 41.1311 41.6742 41.1311C36.2492 41.1311 32.3742 37.7811 32.3742 30.9811ZM23.8492 26.9311L30.8492 40.5061C30.9742 40.7061 30.8992 40.9061 30.6992 40.9061H26.3492C26.0742 40.9061 25.9492 40.8311 25.8242 40.5811C24.2242 37.2811 22.5992 33.8561 20.9242 30.3061H20.8742C19.3742 33.6561 17.7242 37.3061 16.1242 40.6061C15.9992 40.8061 15.8742 40.8811 15.6742 40.8811H11.5242C11.2742 40.8811 11.2492 40.6811 11.3742 40.5311L18.2242 27.3561L11.5992 14.2561C11.4492 14.0561 11.5992 13.8811 11.7742 13.8811H16.0742C16.3242 13.8811 16.4492 13.9311 16.5242 14.1561C18.0992 17.4811 19.6992 20.7561 21.1992 24.1061H21.2492C22.6992 20.8061 24.2992 17.4811 25.8242 14.2061C25.9492 14.0061 26.0242 13.8811 26.2742 13.8811H30.2992C30.4992 13.8811 30.5742 14.0311 30.4492 14.2561L23.8492 26.9311Z" fill="#FF2BC2"/>
</g>
<defs>
<clipPath id="clip0_746_366">
<rect width="60" height="58.512" fill="white"/>
</clipPath>
</defs>
</svg>
