<svg width="61" height="60" viewBox="0 0 61 60" fill="none" xmlns="http://www.w3.org/2000/svg">
<g clip-path="url(#clip0_746_378)">
<path d="M2.52148 2.52759H57.9954V56.4886H2.52148V2.52759Z" fill="url(#paint0_radial_746_378)"/>
<path d="M2.5215 2.52761H57.9954V56.4886H2.5215V2.52761ZM0 59.0102H60.5169V0.00610352H0V59.0102ZM42.8157 28.4491C44.1016 28.4491 44.5555 28.4491 44.6816 28.3987C44.6816 28.2222 44.732 28.096 44.732 27.97C44.732 26.6083 44.0764 24.0868 41.454 24.0868C39.0333 24.0868 37.9996 26.2048 37.7473 28.4491H42.8157V28.4491ZM37.697 31.9035C37.7474 35.3077 39.3612 37.6023 43.1939 37.6023C44.6817 37.6023 45.9676 37.4007 47.3041 36.8207C47.4806 36.7451 47.6068 36.7703 47.6068 36.9972V40.1491C47.6068 40.4012 47.5311 40.5274 47.3546 40.6534C46.0182 41.3089 44.3539 41.6116 42.2863 41.6116C35.6295 41.6116 33.1331 36.6946 33.1331 31.2229C33.1331 25.2721 36.2095 20.4056 41.6308 20.4056C47.1277 20.4056 49.0441 25.02 49.0441 28.7771C49.0441 29.9874 48.9685 30.9708 48.8424 31.4499C48.792 31.6516 48.7164 31.7274 48.5146 31.7778C48.0102 31.8534 46.5225 31.9542 44.3036 31.9542H37.697V31.9035ZM24.1817 29.3316C23.4756 26.5327 21.7609 20.4306 21.1305 17.4804H21.0801C20.5506 20.4306 19.1637 25.4232 18.1299 29.3316H24.1817V29.3316ZM17.096 33.4166L15.104 40.956C15.0536 41.1576 14.978 41.2333 14.7257 41.2333H11.0191C10.7669 41.2333 10.7164 41.1577 10.7669 40.8551L17.9281 15.8162C18.0541 15.3623 18.1298 15.0093 18.1802 13.7486C18.1802 13.5721 18.2558 13.4965 18.3819 13.4965H23.6771C23.8536 13.4965 23.9292 13.5469 23.9798 13.7486L31.9982 40.9056C32.0486 41.1071 31.9982 41.2333 31.7965 41.2333H27.636C27.4343 41.2333 27.3081 41.1577 27.2577 40.9813L25.19 33.4167H17.096V33.4166Z" fill="#D8A1FF"/>
</g>
<defs>
<radialGradient id="paint0_radial_746_378" cx="0" cy="0" r="1" gradientUnits="userSpaceOnUse" gradientTransform="translate(20.7919 14.6203) scale(42.1601 40.8187)">
<stop stop-color="#442F55" stop-opacity="0.98"/>
<stop offset="1" stop-color="#12002C"/>
</radialGradient>
<clipPath id="clip0_746_378">
<rect width="60.5168" height="59.016" fill="white"/>
</clipPath>
</defs>
</svg>
