<svg width="114" height="64" viewBox="0 0 114 64" fill="none" xmlns="http://www.w3.org/2000/svg">
<g clip-path="url(#clip0_893_311)">
<path d="M82.8926 47.8148C81.9578 47.8149 81.044 47.5377 80.2666 47.018C79.4893 46.4984 78.8834 45.7597 78.5255 44.8954C78.1676 44.0311 78.0738 43.0799 78.256 42.1623C78.4382 41.2446 78.8882 40.4017 79.5491 39.74C80.2099 39.0783 81.052 38.6276 81.9688 38.4449C82.8856 38.2622 83.8359 38.3557 84.6996 38.7136C85.5633 39.0714 86.3015 39.6776 86.821 40.4554C87.3405 41.2333 87.6179 42.1478 87.618 43.0834C87.6166 44.3375 87.1184 45.5398 86.2325 46.4268C85.3467 47.3137 84.1456 47.8129 82.8926 47.8148M30.6563 47.8148C29.7215 47.8149 28.8077 47.5377 28.0303 47.018C27.253 46.4984 26.6471 45.7597 26.2892 44.8954C25.9313 44.0311 25.8375 43.0799 26.0197 42.1623C26.2019 41.2446 26.6519 40.4017 27.3128 39.74C27.9736 39.0783 28.8157 38.6276 29.7325 38.4449C30.6493 38.2622 31.5996 38.3557 32.4633 38.7136C33.327 39.0714 34.0652 39.6776 34.5847 40.4554C35.1042 41.2333 35.3816 42.1478 35.3817 43.0834C35.3806 44.3376 34.8824 45.54 33.9965 46.427C33.1106 47.314 31.9094 47.8131 30.6563 47.8148M84.5874 19.3223L94.032 2.94969C94.1612 2.72606 94.2451 2.47915 94.2789 2.22306C94.3128 1.96697 94.2959 1.70672 94.2292 1.45717C94.1626 1.20761 94.0475 0.973643 93.8905 0.768615C93.7335 0.563587 93.5377 0.391517 93.3142 0.262229C93.0908 0.132941 92.8441 0.0489668 92.5882 0.0151016C92.3324 -0.0187635 92.0723 -0.00185681 91.823 0.0648565C91.5737 0.13157 91.3399 0.246783 91.1351 0.403919C90.9302 0.561054 90.7583 0.757034 90.6291 0.980669L81.0651 17.5601C73.7517 14.2192 65.5378 12.3589 56.7736 12.3589C48.0093 12.3589 39.7964 14.2219 32.4829 17.5601L22.9198 0.980669C22.7908 0.756975 22.619 0.560903 22.4143 0.403646C22.2096 0.24639 21.976 0.131029 21.7267 0.0641498C21.4775 -0.00272906 21.2175 -0.019816 20.9616 0.0138646C20.7058 0.0475451 20.4591 0.131334 20.2356 0.260446C20.0121 0.389558 19.8162 0.561466 19.6591 0.766354C19.5019 0.971243 19.3867 1.2051 19.3199 1.45457C19.253 1.70404 19.236 1.96424 19.2696 2.22032C19.3033 2.47639 19.387 2.72333 19.516 2.94702L28.9615 19.3223C12.7431 28.1513 1.64999 44.5845 0.0273438 64.0002H113.522C111.897 44.5845 100.805 28.1513 84.5874 19.3223" fill="#3DDC84"/>
</g>
<defs>
<clipPath id="clip0_893_311">
<rect width="113.493" height="64" fill="white"/>
</clipPath>
</defs>
</svg>
