<svg width="53" height="66" viewBox="0 0 53 66" fill="none" xmlns="http://www.w3.org/2000/svg">
<g clip-path="url(#clip0_893_313)">
<path d="M44.2546 34.5914C44.1808 26.3582 50.9789 22.4055 51.2865 22.2128C47.461 16.616 41.5075 15.8493 39.3835 15.7591C34.3198 15.2466 29.4979 18.74 26.9312 18.74C24.3645 18.74 20.3955 15.8329 16.1968 15.9149C10.6698 15.9969 5.5814 19.1254 2.73585 24.0702C-3.00035 34.0215 1.27208 48.7699 6.85657 56.8474C9.59141 60.7959 12.847 65.2446 17.1276 65.0806C21.2524 64.9165 22.8105 62.4154 27.7881 62.4154C32.7658 62.4154 34.1681 65.0806 38.5266 65.0027C42.9589 64.9166 45.7717 60.968 48.486 57.0072C51.6186 52.4232 52.9142 47.9868 52.988 47.7531C52.8896 47.7121 44.3448 44.436 44.2546 34.5914" fill="#B3B3B3"/>
<path d="M36.0648 10.4152C38.3363 7.66399 39.8697 3.83844 39.4474 0.0253906C36.1752 0.156739 32.2146 2.20675 29.8651 4.95799C27.7618 7.38953 25.9167 11.2846 26.4167 15.02C30.066 15.303 33.7929 13.1624 36.0648 10.4152" fill="#B3B3B3"/>
</g>
<defs>
<clipPath id="clip0_893_313">
<rect width="53" height="65.11" fill="white"/>
</clipPath>
</defs>
</svg>
