<svg width="112" height="34" viewBox="0 0 112 34" fill="none" xmlns="http://www.w3.org/2000/svg">
<path d="M102.57 16.4913H98.6693C96.1462 16.4913 94.7683 18.3714 94.7683 21.6482V33.3586H87.2348V16.4913H84.0854C81.5623 16.4913 80.1844 18.3714 80.1844 21.6482V33.3586H72.633V10.1884H80.1844V13.7159C81.437 10.9405 83.0833 10.1884 85.5885 10.1884H94.7683V13.7159C96.0209 10.9405 97.6672 10.1884 100.172 10.1884H102.695L102.57 16.4913ZM70.8794 23.5283H55.2756C55.6513 26.1784 57.2797 27.5571 59.9281 27.5571C61.9322 27.5571 63.328 26.6797 63.829 25.301L70.4857 27.1811C68.8573 31.2099 64.8311 33.5914 59.9281 33.5914C51.7504 33.5914 47.9747 27.1811 47.9747 21.6303C47.9747 16.2227 51.2493 9.79451 59.427 9.79451C68.1058 9.79451 71.0047 16.3301 71.0047 21.2543C71.0047 22.4002 71.0047 23.0269 70.8794 23.5283ZM63.7217 19.1235C63.5964 17.118 62.0933 15.3453 59.5702 15.3453C57.1902 15.3453 55.7945 16.3481 55.2934 19.1235H63.7217ZM34.9118 33.3407H41.4432L49.7462 10.3138H42.1948L38.1686 23.779L34.1424 10.1884H26.591L34.9118 33.3407ZM4.24096 33.3407H11.6671V16.4913H18.8427V33.3586H26.2689V10.1884H11.685V8.80968C11.685 7.30559 12.8123 6.28496 14.4586 6.28496H18.8606V0H13.3313C7.92718 0 4.27674 3.40211 4.27674 8.30832V10.1884H0V16.4734H4.27674V33.3407H4.24096Z" fill="#404145"/>
<path d="M107.348 33.5918C109.871 33.5918 112 31.4432 112 28.9365C112 26.4119 109.871 24.2812 107.348 24.2812C104.825 24.2812 102.695 26.4298 102.695 28.9365C102.695 31.4611 104.843 33.5918 107.348 33.5918Z" fill="#1DBF73"/>
</svg>
