<svg width="670" height="705" viewBox="0 0 670 705" fill="none" xmlns="http://www.w3.org/2000/svg">
<circle cx="318" cy="318" r="318" fill="#0081FE"/>
<g filter="url(#filter0_d_915_401)">
<rect x="554" y="428" width="82" height="82" rx="10" fill="white"/>
</g>
<rect x="570" y="444" width="50" height="50" rx="10" fill="#60A78F"/>
<path d="M583.421 479.674H584.461L585.644 479.811V482.863H584.532C584.387 482.866 584.242 482.841 584.106 482.788C583.971 482.736 583.847 482.658 583.744 482.559C583.64 482.46 583.558 482.342 583.503 482.211C583.447 482.081 583.42 481.941 583.421 481.8V479.674ZM597.737 478.6C597.488 478.602 597.248 478.686 597.054 478.838C596.861 478.989 596.727 479.199 596.674 479.434C596.62 479.669 596.651 479.914 596.76 480.13C596.869 480.346 597.051 480.52 597.276 480.623L599.474 481.686C599.604 481.749 599.745 481.786 599.89 481.797C600.035 481.807 600.18 481.79 600.318 481.746C600.455 481.702 600.583 481.632 600.693 481.54C600.803 481.448 600.893 481.337 600.958 481.211C601.023 481.086 601.062 480.95 601.073 480.81C601.083 480.67 601.065 480.529 601.02 480.396C600.974 480.263 600.902 480.14 600.807 480.033C600.712 479.927 600.597 479.84 600.467 479.777L598.257 478.714C598.095 478.638 597.917 478.599 597.737 478.6ZM597.737 474.646C597.463 474.673 597.21 474.797 597.026 474.995C596.842 475.192 596.74 475.449 596.74 475.714C596.74 475.98 596.842 476.236 597.026 476.434C597.21 476.631 597.463 476.755 597.737 476.783H599.971C600.244 476.755 600.497 476.631 600.682 476.434C600.866 476.236 600.968 475.98 600.968 475.714C600.968 475.449 600.866 475.192 600.682 474.995C600.497 474.797 600.244 474.673 599.971 474.646H597.737ZM581.187 474.337H583.421V477.537H581.211L581.187 474.337ZM592.228 473.4V478.463L585.608 477.663V474.234L592.228 473.4ZM599.959 470.063C599.783 470.064 599.609 470.103 599.451 470.177L597.276 471.286C597.146 471.348 597.03 471.434 596.935 471.54C596.84 471.645 596.767 471.768 596.721 471.901C596.675 472.033 596.657 472.173 596.666 472.313C596.676 472.453 596.715 472.589 596.779 472.714C596.844 472.84 596.933 472.951 597.042 473.043C597.151 473.135 597.278 473.206 597.415 473.25C597.552 473.295 597.697 473.313 597.842 473.303C597.986 473.294 598.127 473.257 598.257 473.194L600.467 472.131C600.735 472.054 600.962 471.882 601.102 471.649C601.243 471.417 601.287 471.141 601.226 470.878C601.164 470.615 601.001 470.385 600.771 470.233C600.54 470.082 600.258 470.021 599.983 470.063H599.959ZM590.159 466.874H585.549C585.405 466.88 585.263 466.912 585.131 466.97C585 467.029 584.882 467.111 584.784 467.214C584.685 467.316 584.609 467.436 584.559 467.567C584.509 467.698 584.486 467.838 584.491 467.977C584.496 468.117 584.53 468.254 584.59 468.381C584.651 468.508 584.736 468.622 584.842 468.717C584.948 468.812 585.072 468.886 585.208 468.934C585.343 468.983 585.487 469.005 585.632 469H590.041C590.185 469.008 590.33 468.987 590.466 468.941C590.603 468.894 590.728 468.822 590.836 468.729C590.943 468.636 591.031 468.523 591.093 468.397C591.156 468.271 591.192 468.134 591.199 467.994C591.207 467.855 591.186 467.715 591.138 467.583C591.09 467.451 591.016 467.33 590.919 467.226C590.823 467.122 590.706 467.037 590.575 466.977C590.445 466.917 590.304 466.882 590.159 466.874V466.874ZM596.956 464.783L597.748 466.04L597.181 466.874H595.455L596.956 464.783ZM585.632 463.64C585.34 463.64 585.06 463.752 584.854 463.951C584.648 464.151 584.532 464.421 584.532 464.703C584.532 464.985 584.648 465.255 584.854 465.454C585.06 465.654 585.34 465.766 585.632 465.766H587.83C588.122 465.766 588.402 465.654 588.608 465.454C588.814 465.255 588.93 464.985 588.93 464.703C588.93 464.421 588.814 464.151 588.608 463.951C588.402 463.752 588.122 463.64 587.83 463.64H585.632ZM602.181 463.423L604.546 466.851H599.817L602.181 463.423ZM602.181 460.429C602.002 460.436 601.827 460.484 601.669 460.567C601.511 460.65 601.375 460.767 601.271 460.909L599.096 464.086L597.914 462.28C597.817 462.127 597.682 462.001 597.52 461.913C597.359 461.825 597.177 461.778 596.992 461.777C596.811 461.772 596.631 461.811 596.47 461.891C596.309 461.971 596.171 462.089 596.07 462.234C594.888 463.926 593.623 465.663 592.441 467.343C592.329 467.503 592.265 467.689 592.254 467.881C592.244 468.074 592.288 468.265 592.381 468.436C592.475 468.606 592.614 468.748 592.785 468.848C592.956 468.947 593.152 469 593.351 469H606.591C606.832 469.02 607.073 468.962 607.277 468.836C607.481 468.71 607.636 468.522 607.718 468.302C607.8 468.082 607.805 467.842 607.731 467.619C607.658 467.396 607.51 467.202 607.312 467.069L603.103 461C603.004 460.845 602.867 460.715 602.704 460.622C602.542 460.528 602.358 460.474 602.17 460.463L602.181 460.429ZM604.286 456.177C603.994 456.191 603.72 456.316 603.524 456.525C603.328 456.734 603.225 457.01 603.239 457.291C603.253 457.573 603.383 457.838 603.599 458.028C603.815 458.218 604.1 458.316 604.392 458.303H606.591C606.882 458.303 607.162 458.191 607.368 457.992C607.574 457.792 607.69 457.522 607.69 457.24C607.69 456.958 607.574 456.688 607.368 456.488C607.162 456.289 606.882 456.177 606.591 456.177H604.286ZM599.876 456.177C599.585 456.191 599.311 456.316 599.114 456.525C598.918 456.734 598.816 457.01 598.83 457.291C598.844 457.573 598.974 457.838 599.19 458.028C599.406 458.218 599.691 458.316 599.983 458.303H601.094C601.385 458.303 601.665 458.191 601.871 457.992C602.077 457.792 602.193 457.522 602.193 457.24C602.193 456.958 602.077 456.688 601.871 456.488C601.665 456.289 601.385 456.177 601.094 456.177H599.876ZM595.467 456.177C595.175 456.191 594.901 456.316 594.705 456.525C594.509 456.734 594.407 457.01 594.421 457.291C594.435 457.573 594.564 457.838 594.78 458.028C594.997 458.218 595.282 458.316 595.573 458.303H596.673C596.964 458.303 597.244 458.191 597.45 457.992C597.656 457.792 597.772 457.522 597.772 457.24C597.772 456.958 597.656 456.688 597.45 456.488C597.244 456.289 596.964 456.177 596.673 456.177H595.467ZM585.549 456.211C585.257 456.225 584.983 456.35 584.787 456.559C584.591 456.768 584.489 457.044 584.503 457.326C584.517 457.608 584.646 457.873 584.862 458.062C585.079 458.252 585.364 458.351 585.655 458.337H586.731C587.023 458.337 587.302 458.225 587.508 458.026C587.715 457.827 587.83 457.556 587.83 457.274C587.83 456.992 587.715 456.722 587.508 456.523C587.302 456.323 587.023 456.211 586.731 456.211H585.549ZM585.655 455.137H606.591C606.881 455.134 607.169 455.187 607.438 455.293C607.706 455.398 607.951 455.554 608.157 455.752C608.362 455.95 608.525 456.186 608.636 456.445C608.747 456.704 608.803 456.982 608.801 457.263V480.737C608.803 481.018 608.747 481.296 608.636 481.555C608.525 481.814 608.362 482.05 608.157 482.248C607.951 482.446 607.706 482.602 607.438 482.707C607.169 482.813 606.881 482.866 606.591 482.863H587.83V480.074L592.122 480.6C592.415 480.635 592.713 480.611 592.996 480.527C593.278 480.444 593.54 480.304 593.763 480.116C593.986 479.928 594.166 479.697 594.29 479.438C594.415 479.179 594.481 478.897 594.486 478.611V477.229L595.266 476.474C595.37 476.376 595.453 476.259 595.51 476.129C595.567 476 595.596 475.861 595.596 475.72C595.596 475.579 595.567 475.44 595.51 475.311C595.453 475.181 595.37 475.064 595.266 474.966L594.486 474.223V473.263C594.483 472.976 594.418 472.694 594.294 472.434C594.17 472.174 593.99 471.942 593.767 471.754C593.543 471.566 593.281 471.426 592.997 471.343C592.714 471.261 592.415 471.237 592.122 471.274L584.461 472.211H583.421V457.263C583.42 456.982 583.476 456.704 583.586 456.445C583.697 456.186 583.86 455.95 584.066 455.752C584.272 455.554 584.516 455.398 584.785 455.293C585.054 455.187 585.342 455.134 585.632 455.137H585.655ZM585.632 453C584.462 453.003 583.341 453.453 582.513 454.251C581.685 455.05 581.217 456.132 581.211 457.263V472.211C580.627 472.214 580.069 472.439 579.655 472.837C579.241 473.234 579.006 473.773 579 474.337V477.537C579.006 478.102 579.241 478.642 579.654 479.042C580.067 479.441 580.626 479.668 581.211 479.674V481.8C581.217 482.649 581.569 483.461 582.191 484.06C582.813 484.659 583.654 484.997 584.532 485H606.591C607.759 484.997 608.879 484.547 609.705 483.748C610.531 482.949 610.997 481.867 611 480.737V457.263C610.997 456.133 610.531 455.051 609.705 454.252C608.879 453.453 607.759 453.003 606.591 453H585.632Z" fill="white"/>
<g filter="url(#filter1_d_915_401)">
<rect x="453" y="16" width="82" height="82" rx="10" fill="white"/>
</g>
<rect x="469" y="32" width="50" height="50" rx="10" fill="#6F75FF"/>
<path d="M507.863 59.0781V67.3904C507.867 68.1971 507.593 68.9781 507.09 69.588C506.588 70.1978 505.892 70.595 505.131 70.7057L499.257 63.3063L507.863 59.0781ZM480.137 59.0781L488.743 63.3183L486.629 65.985C486.539 66.0993 486.472 66.2311 486.431 66.3727C486.391 66.5142 486.377 66.6629 486.39 66.8101C486.404 66.9574 486.445 67.1003 486.512 67.2308C486.578 67.3612 486.668 67.4767 486.777 67.5706C486.886 67.6644 487.011 67.7348 487.146 67.7778C487.281 67.8207 487.422 67.8354 487.562 67.8209C487.702 67.8064 487.838 67.763 487.962 67.6933C488.087 67.6235 488.196 67.5288 488.286 67.4144L492.4 62.2252C492.597 61.9715 492.846 61.767 493.127 61.6265C493.409 61.4861 493.717 61.4133 494.029 61.4133C494.34 61.4133 494.648 61.4861 494.93 61.6265C495.211 61.767 495.46 61.9715 495.657 62.2252L502.411 70.7538H483.337C482.916 70.7569 482.499 70.6721 482.109 70.5042C481.719 70.3363 481.365 70.0887 481.068 69.7758C480.77 69.4628 480.534 69.0908 480.375 68.6813C480.215 68.2718 480.134 67.833 480.137 67.3904V59.0781ZM489.737 51.7147H490.8V53.961H489.737C489.535 53.9404 489.338 53.8835 489.154 53.7928C488.869 53.6486 488.674 53.5766 488.674 52.8318C488.674 52.0871 488.869 52.015 489.154 51.8709C489.337 51.7767 489.535 51.7196 489.737 51.7027V51.7147ZM482.263 51.6186V57.6246L480.137 56.5796V55.0661C480.14 54.5347 480.258 54.011 480.482 53.5344C480.705 53.0579 481.029 52.6411 481.429 52.3153L482.263 51.6186ZM497.211 50.7898V54.8739L492.937 54.1171V51.5225L497.211 50.7898ZM504.674 50.7898L506.571 52.3153C506.969 52.6417 507.289 53.0592 507.509 53.536C507.729 54.0128 507.842 54.5362 507.84 55.0661V56.5916L504.674 58.2012V50.7898ZM497.429 48.5075C497.284 48.4898 497.139 48.4898 496.994 48.5075L491.714 49.4565H489.737C489.201 49.4719 488.674 49.6114 488.194 49.8649C487.692 50.1583 487.273 50.5875 486.982 51.1081C486.691 51.6287 486.537 52.2218 486.537 52.8258C486.537 53.4299 486.691 54.0229 486.982 54.5435C487.273 55.0641 487.692 55.4934 488.194 55.7868C488.676 56.0332 489.202 56.1684 489.737 56.1832V57.3003C489.722 57.4575 489.738 57.6165 489.784 57.7668C489.831 57.9171 489.907 58.0554 490.008 58.1728C490.109 58.2902 490.232 58.384 490.369 58.4483C490.507 58.5125 490.655 58.5457 490.806 58.5457C490.956 58.5457 491.105 58.5125 491.242 58.4483C491.38 58.384 491.503 58.2902 491.604 58.1728C491.704 58.0554 491.78 57.9171 491.827 57.7668C491.874 57.6165 491.89 57.4575 491.874 57.3003V56.2072L497.04 57.1081C497.321 57.1508 497.607 57.1301 497.88 57.0476C498.152 56.965 498.405 56.8224 498.621 56.6293C498.838 56.4362 499.012 56.1969 499.134 55.9274C499.255 55.6578 499.321 55.3642 499.326 55.0661V53.9489C499.475 53.9652 499.627 53.9483 499.77 53.8993C499.913 53.8503 500.044 53.7702 500.156 53.6644C500.268 53.5585 500.357 53.4291 500.418 53.2847C500.479 53.1402 500.511 52.9839 500.511 52.8258C500.511 52.6677 500.479 52.5114 500.418 52.367C500.357 52.2225 500.268 52.0932 500.156 51.9873C500.044 51.8814 499.913 51.8014 499.77 51.7524C499.627 51.7033 499.475 51.6864 499.326 51.7027V50.5736C499.315 50.0414 499.114 49.5331 498.762 49.1501C498.41 48.7671 497.934 48.5376 497.429 48.5075V48.5075ZM485.474 47.2222H501.474C501.614 47.219 501.752 47.2453 501.882 47.2995C502.012 47.3538 502.129 47.4348 502.229 47.5379C502.328 47.6411 502.406 47.7641 502.459 47.8997C502.512 48.0353 502.539 48.1807 502.537 48.3273V59.2222L497.851 61.5285L497.269 60.7958C496.867 60.2953 496.367 59.8931 495.802 59.6171C495.238 59.3412 494.623 59.1982 494 59.1982C493.377 59.1982 492.762 59.3412 492.198 59.6171C491.633 59.8931 491.133 60.2953 490.731 60.7958L490.16 61.5285L484.446 58.6937V48.3273C484.446 48.0383 484.553 47.7608 484.746 47.5543C484.938 47.3477 485.199 47.2285 485.474 47.2222V47.2222ZM494 43.2342C495.045 43.2382 496.059 43.6103 496.88 44.2913L497.703 44.976H490.297L491.12 44.2913C491.941 43.612 492.955 43.24 494 43.2342V43.2342ZM494 41C492.476 41.0181 491.002 41.5768 489.817 42.5856L486.846 44.988H485.474C484.628 44.9879 483.817 45.3386 483.215 45.9638C482.614 46.5891 482.272 47.4384 482.263 48.3273V48.7598L480.091 50.5495C479.442 51.0884 478.916 51.7744 478.554 52.5564C478.192 53.3385 478.003 54.1963 478 55.0661V67.3904C478.006 68.8762 478.57 70.2994 479.57 71.35C480.569 72.4006 481.923 72.9937 483.337 73H504.674C506.087 72.9937 507.44 72.4002 508.438 71.3493C509.435 70.2983 509.997 68.8751 510 67.3904V55.0661C509.999 54.1972 509.812 53.3396 509.452 52.5575C509.092 51.7754 508.568 51.089 507.92 50.5495L504.617 47.8228C504.498 47.0354 504.117 46.3182 503.541 45.799C502.965 45.2797 502.233 44.9923 501.474 44.988H501.166L498.194 42.5856C497.003 41.5809 495.527 41.0229 494 41V41Z" fill="white"/>
<g filter="url(#filter2_d_915_401)">
<rect x="197" y="579" width="82" height="82" rx="10" fill="white"/>
</g>
<rect x="213" y="595" width="50" height="50" rx="10" fill="#FF7E6F"/>
<path d="M251.863 622.078V630.39C251.867 631.197 251.593 631.978 251.09 632.588C250.588 633.198 249.892 633.595 249.131 633.706L243.257 626.306L251.863 622.078ZM224.137 622.078L232.743 626.318L230.629 628.985C230.539 629.099 230.472 629.231 230.431 629.373C230.391 629.514 230.377 629.663 230.39 629.81C230.404 629.957 230.445 630.1 230.512 630.231C230.578 630.361 230.668 630.477 230.777 630.571C230.886 630.664 231.011 630.735 231.146 630.778C231.281 630.821 231.422 630.835 231.562 630.821C231.702 630.806 231.838 630.763 231.962 630.693C232.087 630.624 232.196 630.529 232.286 630.414L236.4 625.225C236.597 624.971 236.846 624.767 237.127 624.627C237.409 624.486 237.717 624.413 238.029 624.413C238.34 624.413 238.648 624.486 238.93 624.627C239.211 624.767 239.46 624.971 239.657 625.225L246.411 633.754H227.337C226.916 633.757 226.499 633.672 226.109 633.504C225.719 633.336 225.365 633.089 225.068 632.776C224.77 632.463 224.534 632.091 224.375 631.681C224.215 631.272 224.134 630.833 224.137 630.39V622.078ZM233.737 614.715H234.8V616.961H233.737C233.535 616.94 233.338 616.884 233.154 616.793C232.869 616.649 232.674 616.577 232.674 615.832C232.674 615.087 232.869 615.015 233.154 614.871C233.337 614.777 233.535 614.72 233.737 614.703V614.715ZM226.263 614.619V620.625L224.137 619.58V618.066C224.14 617.535 224.258 617.011 224.482 616.534C224.705 616.058 225.029 615.641 225.429 615.315L226.263 614.619ZM241.211 613.79V617.874L236.937 617.117V614.523L241.211 613.79ZM248.674 613.79L250.571 615.315C250.969 615.642 251.289 616.059 251.509 616.536C251.729 617.013 251.842 617.536 251.84 618.066V619.592L248.674 621.201V613.79ZM241.429 611.508C241.284 611.49 241.139 611.49 240.994 611.508L235.714 612.456H233.737C233.201 612.472 232.674 612.611 232.194 612.865C231.692 613.158 231.273 613.588 230.982 614.108C230.691 614.629 230.537 615.222 230.537 615.826C230.537 616.43 230.691 617.023 230.982 617.544C231.273 618.064 231.692 618.493 232.194 618.787C232.676 619.033 233.202 619.168 233.737 619.183V620.3C233.722 620.458 233.738 620.616 233.784 620.767C233.831 620.917 233.907 621.055 234.008 621.173C234.109 621.29 234.232 621.384 234.369 621.448C234.507 621.513 234.655 621.546 234.806 621.546C234.956 621.546 235.105 621.513 235.242 621.448C235.38 621.384 235.503 621.29 235.604 621.173C235.704 621.055 235.78 620.917 235.827 620.767C235.874 620.616 235.89 620.458 235.874 620.3V619.207L241.04 620.108C241.321 620.151 241.607 620.13 241.88 620.048C242.152 619.965 242.405 619.822 242.621 619.629C242.838 619.436 243.012 619.197 243.134 618.927C243.255 618.658 243.321 618.364 243.326 618.066V616.949C243.475 616.965 243.627 616.948 243.77 616.899C243.913 616.85 244.044 616.77 244.156 616.664C244.268 616.558 244.357 616.429 244.418 616.285C244.479 616.14 244.511 615.984 244.511 615.826C244.511 615.668 244.479 615.511 244.418 615.367C244.357 615.223 244.268 615.093 244.156 614.987C244.044 614.881 243.913 614.801 243.77 614.752C243.627 614.703 243.475 614.686 243.326 614.703V613.574C243.315 613.041 243.114 612.533 242.762 612.15C242.41 611.767 241.934 611.538 241.429 611.508V611.508ZM229.474 610.222H245.474C245.614 610.219 245.752 610.245 245.882 610.3C246.012 610.354 246.129 610.435 246.229 610.538C246.328 610.641 246.406 610.764 246.459 610.9C246.512 611.035 246.539 611.181 246.537 611.327V622.222L241.851 624.529L241.269 623.796C240.867 623.295 240.367 622.893 239.802 622.617C239.238 622.341 238.623 622.198 238 622.198C237.377 622.198 236.762 622.341 236.198 622.617C235.633 622.893 235.133 623.295 234.731 623.796L234.16 624.529L228.446 621.694V611.327C228.446 611.038 228.553 610.761 228.746 610.554C228.938 610.348 229.199 610.229 229.474 610.222V610.222ZM238 606.234C239.045 606.238 240.059 606.61 240.88 607.291L241.703 607.976H234.297L235.12 607.291C235.941 606.612 236.955 606.24 238 606.234V606.234ZM238 604C236.476 604.018 235.002 604.577 233.817 605.586L230.846 607.988H229.474C228.628 607.988 227.817 608.339 227.215 608.964C226.614 609.589 226.272 610.438 226.263 611.327V611.76L224.091 613.55C223.442 614.088 222.916 614.774 222.554 615.556C222.192 616.338 222.003 617.196 222 618.066V630.39C222.006 631.876 222.57 633.299 223.57 634.35C224.569 635.401 225.923 635.994 227.337 636H248.674C250.087 635.994 251.44 635.4 252.438 634.349C253.435 633.298 253.997 631.875 254 630.39V618.066C253.999 617.197 253.812 616.34 253.452 615.558C253.092 614.775 252.568 614.089 251.92 613.55L248.617 610.823C248.498 610.035 248.117 609.318 247.541 608.799C246.965 608.28 246.233 607.992 245.474 607.988H245.166L242.194 605.586C241.003 604.581 239.527 604.023 238 604V604Z" fill="white"/>
<g filter="url(#filter3_d_915_401)">
<rect x="46" y="98" width="82" height="82" rx="10" fill="white"/>
</g>
<rect x="62" y="114" width="50" height="50" rx="10" fill="#334688"/>
<path d="M84.8743 150.737H89.1371V152.863H84.8743V150.737ZM79.6629 146.474H94.3371C94.2414 146.891 94.054 147.282 93.7886 147.617C93.4734 147.965 93.0802 148.234 92.6411 148.401C92.2021 148.568 91.7298 148.628 91.2629 148.577H82.7371C82.272 148.627 81.8016 148.566 81.3646 148.399C80.9275 148.233 80.5363 147.964 80.2229 147.617C79.9536 147.283 79.7623 146.892 79.6629 146.474ZM76.3371 141.137C76.0553 141.137 75.7849 141.249 75.5856 141.448C75.3863 141.648 75.2743 141.918 75.2743 142.2C75.2743 142.482 75.3863 142.752 75.5856 142.952C75.7849 143.151 76.0553 143.263 76.3371 143.263H81.6743C81.9562 143.263 82.2265 143.151 82.4258 142.952C82.6252 142.752 82.7371 142.482 82.7371 142.2C82.7371 141.918 82.6252 141.648 82.4258 141.448C82.2265 141.249 81.9562 141.137 81.6743 141.137H76.3371ZM87 139.994H88.0286L89.1714 140.12V141.057H87V139.994ZM76.3371 137.4C76.1875 137.385 76.0363 137.401 75.8933 137.447C75.7503 137.494 75.6187 137.57 75.507 137.671C75.3953 137.772 75.306 137.895 75.2449 138.032C75.1838 138.169 75.1522 138.318 75.1522 138.469C75.1522 138.619 75.1838 138.768 75.2449 138.905C75.306 139.043 75.3953 139.166 75.507 139.266C75.6187 139.367 75.7503 139.443 75.8933 139.49C76.0363 139.537 76.1875 139.553 76.3371 139.537H79.5371C79.6868 139.553 79.838 139.537 79.9809 139.49C80.1239 139.443 80.2555 139.367 80.3672 139.266C80.4789 139.166 80.5683 139.043 80.6294 138.905C80.6905 138.768 80.7221 138.619 80.7221 138.469C80.7221 138.318 80.6905 138.169 80.6294 138.032C80.5683 137.895 80.4789 137.772 80.3672 137.671C80.2555 137.57 80.1239 137.494 79.9809 137.447C79.838 137.401 79.6868 137.385 79.5371 137.4H76.3371ZM96.6 134.749V138.76L88.2457 137.857H85.96V135.686H88.2457L96.6 134.749ZM76.3371 133.674C76.1976 133.674 76.0594 133.702 75.9304 133.755C75.8015 133.809 75.6843 133.887 75.5856 133.986C75.4869 134.084 75.4086 134.201 75.3552 134.33C75.3018 134.459 75.2743 134.598 75.2743 134.737C75.2743 134.877 75.3018 135.015 75.3552 135.144C75.4086 135.273 75.4869 135.39 75.5856 135.489C75.6843 135.587 75.8015 135.666 75.9304 135.719C76.0594 135.773 76.1976 135.8 76.3371 135.8H80.6114C80.751 135.8 80.8892 135.773 81.0182 135.719C81.1471 135.666 81.2643 135.587 81.363 135.489C81.4617 135.39 81.54 135.273 81.5934 135.144C81.6468 135.015 81.6743 134.877 81.6743 134.737C81.6743 134.598 81.6468 134.459 81.5934 134.33C81.54 134.201 81.4617 134.084 81.363 133.986C81.2643 133.887 81.1471 133.809 81.0182 133.755C80.8892 133.702 80.751 133.674 80.6114 133.674H76.3371ZM96.4971 132.611L88.0286 133.56H85.9371C85.3732 133.563 84.8331 133.788 84.4333 134.185C84.0334 134.583 83.806 135.122 83.8 135.686V137.857C83.8022 138.228 83.9014 138.592 84.0879 138.913C84.2743 139.234 84.5415 139.5 84.8629 139.686V141.057C84.8776 141.616 85.1086 142.148 85.5072 142.54C85.9057 142.932 86.4409 143.154 87 143.16H89.1371C89.701 143.154 90.24 142.927 90.6377 142.527C91.0353 142.127 91.2599 141.587 91.2629 141.023V140.326L96.4971 140.909C96.783 140.941 97.0724 140.912 97.3466 140.825C97.6208 140.739 97.8738 140.595 98.0892 140.405C98.3046 140.214 98.4776 139.98 98.5971 139.719C98.7166 139.457 98.7798 139.173 98.7829 138.886V134.634C98.7798 134.347 98.7166 134.063 98.5971 133.801C98.4776 133.54 98.3046 133.306 98.0892 133.115C97.8738 132.925 97.6208 132.781 97.3466 132.695C97.0724 132.608 96.783 132.579 96.4971 132.611ZM75.2629 128.337H77.4V129.4C77.2504 129.385 77.0992 129.401 76.9562 129.447C76.8132 129.494 76.6816 129.57 76.5699 129.671C76.4582 129.772 76.3689 129.895 76.3078 130.032C76.2466 130.169 76.2151 130.318 76.2151 130.469C76.2151 130.619 76.2466 130.768 76.3078 130.905C76.3689 131.043 76.4582 131.166 76.5699 131.266C76.6816 131.367 76.8132 131.443 76.9562 131.49C77.0992 131.537 77.2504 131.553 77.4 131.537H79.5371C79.6868 131.553 79.838 131.537 79.9809 131.49C80.1239 131.443 80.2555 131.367 80.3672 131.266C80.4789 131.166 80.5683 131.043 80.6294 130.905C80.6905 130.768 80.7221 130.619 80.7221 130.469C80.7221 130.318 80.6905 130.169 80.6294 130.032C80.5683 129.895 80.4789 129.772 80.3672 129.671C80.2555 129.57 80.1239 129.494 79.9809 129.447C79.838 129.401 79.6868 129.385 79.5371 129.4V128.337H94.4743V129.4C94.3247 129.385 94.1735 129.401 94.0305 129.447C93.8875 129.494 93.7559 129.57 93.6442 129.671C93.5325 129.772 93.4432 129.895 93.3821 130.032C93.3209 130.169 93.2893 130.318 93.2893 130.469C93.2893 130.619 93.3209 130.768 93.3821 130.905C93.4432 131.043 93.5325 131.166 93.6442 131.266C93.7559 131.367 93.8875 131.443 94.0305 131.49C94.1735 131.537 94.3247 131.553 94.4743 131.537H96.6114C96.761 131.553 96.9122 131.537 97.0552 131.49C97.1982 131.443 97.3298 131.367 97.4415 131.266C97.5532 131.166 97.6425 131.043 97.7037 130.905C97.7648 130.768 97.7964 130.619 97.7964 130.469C97.7964 130.318 97.7648 130.169 97.7037 130.032C97.6425 129.895 97.5532 129.772 97.4415 129.671C97.3298 129.57 97.1982 129.494 97.0552 129.447C96.9122 129.401 96.761 129.385 96.6114 129.4V128.337H98.7371C99.0181 128.334 99.2969 128.387 99.5569 128.494C99.817 128.6 100.053 128.758 100.251 128.957C100.449 129.156 100.606 129.393 100.711 129.654C100.816 129.914 100.867 130.193 100.863 130.474V142.211C100.866 142.491 100.813 142.769 100.707 143.029C100.602 143.288 100.445 143.523 100.247 143.721C100.049 143.919 99.8135 144.076 99.5542 144.182C99.2949 144.287 99.0171 144.34 98.7371 144.337H75.2629C74.9829 144.34 74.7051 144.287 74.4458 144.182C74.1865 144.076 73.9509 143.919 73.7529 143.721C73.5549 143.523 73.3985 143.288 73.2927 143.029C73.187 142.769 73.1341 142.491 73.1371 142.211V130.474C73.1325 130.193 73.1843 129.914 73.2894 129.654C73.3944 129.393 73.5506 129.156 73.7488 128.957C73.947 128.758 74.183 128.6 74.4431 128.494C74.7031 128.387 74.9819 128.334 75.2629 128.337ZM93.4 125.137H94.4743V126.211H93.4V125.137ZM76.3371 125.137H77.4V126.211H76.3371V125.137ZM76.3371 123C75.7722 123.006 75.232 123.233 74.8325 123.633C74.433 124.032 74.2059 124.572 74.2 125.137V126.36C73.2876 126.597 72.4791 127.129 71.9003 127.873C71.3216 128.617 71.005 129.532 71 130.474V142.211C71.006 143.34 71.4571 144.421 72.2552 145.219C73.0533 146.017 74.1341 146.468 75.2629 146.474H77.4914C77.6311 147.413 78.0265 148.294 78.6343 149.023C79.1564 149.597 79.7991 150.049 80.5164 150.345C81.2337 150.641 82.0077 150.775 82.7829 150.737V152.863H81.72C81.4557 152.89 81.2108 153.015 81.0329 153.212C80.8549 153.409 80.7564 153.666 80.7564 153.931C80.7564 154.197 80.8549 154.454 81.0329 154.651C81.2108 154.848 81.4557 154.973 81.72 155H92.3829C92.6472 154.973 92.892 154.848 93.07 154.651C93.248 154.454 93.3465 154.197 93.3465 153.931C93.3465 153.666 93.248 153.409 93.07 153.212C92.892 153.015 92.6472 152.89 92.3829 152.863H91.3086V150.737C92.0852 150.774 92.8605 150.639 93.5794 150.343C94.2983 150.047 94.9433 149.596 95.4686 149.023C96.0763 148.294 96.4717 147.413 96.6114 146.474H98.8286C99.9413 146.445 100.999 145.983 101.777 145.188C102.556 144.392 102.994 143.325 103 142.211V130.474C102.997 129.345 102.547 128.262 101.748 127.463C100.949 126.665 99.8668 126.214 98.7371 126.211H96.6114V125.137C96.6055 124.572 96.3784 124.032 95.9789 123.633C95.5794 123.233 95.0392 123.006 94.4743 123H93.4C92.835 123.006 92.2949 123.233 91.8954 123.633C91.4959 124.032 91.2688 124.572 91.2629 125.137V126.211H79.5371V125.137C79.5312 124.572 79.3041 124.032 78.9046 123.633C78.5051 123.233 77.965 123.006 77.4 123H76.3371Z" fill="white"/>
<g filter="url(#filter4_di_915_401)">
<path d="M308.776 275.628V191.019L152 315.444L308.776 444.846V382.633L244.075 330.375L308.776 275.628Z" fill="white"/>
</g>
<g filter="url(#filter5_di_915_401)">
<path d="M328.22 360.218V444.827L484.996 320.402L328.22 191V253.212L392.921 305.471L328.22 360.218Z" fill="white"/>
</g>
<defs>
<filter id="filter0_d_915_401" x="540" y="424" width="130" height="130" filterUnits="userSpaceOnUse" color-interpolation-filters="sRGB">
<feFlood flood-opacity="0" result="BackgroundImageFix"/>
<feColorMatrix in="SourceAlpha" type="matrix" values="0 0 0 0 0 0 0 0 0 0 0 0 0 0 0 0 0 0 127 0" result="hardAlpha"/>
<feOffset dx="10" dy="20"/>
<feGaussianBlur stdDeviation="12"/>
<feColorMatrix type="matrix" values="0 0 0 0 0.2 0 0 0 0 0.501961 0 0 0 0 0.533333 0 0 0 0.1 0"/>
<feBlend mode="normal" in2="BackgroundImageFix" result="effect1_dropShadow_915_401"/>
<feBlend mode="normal" in="SourceGraphic" in2="effect1_dropShadow_915_401" result="shape"/>
</filter>
<filter id="filter1_d_915_401" x="439" y="12" width="130" height="130" filterUnits="userSpaceOnUse" color-interpolation-filters="sRGB">
<feFlood flood-opacity="0" result="BackgroundImageFix"/>
<feColorMatrix in="SourceAlpha" type="matrix" values="0 0 0 0 0 0 0 0 0 0 0 0 0 0 0 0 0 0 127 0" result="hardAlpha"/>
<feOffset dx="10" dy="20"/>
<feGaussianBlur stdDeviation="12"/>
<feColorMatrix type="matrix" values="0 0 0 0 0.2 0 0 0 0 0.501961 0 0 0 0 0.533333 0 0 0 0.1 0"/>
<feBlend mode="normal" in2="BackgroundImageFix" result="effect1_dropShadow_915_401"/>
<feBlend mode="normal" in="SourceGraphic" in2="effect1_dropShadow_915_401" result="shape"/>
</filter>
<filter id="filter2_d_915_401" x="183" y="575" width="130" height="130" filterUnits="userSpaceOnUse" color-interpolation-filters="sRGB">
<feFlood flood-opacity="0" result="BackgroundImageFix"/>
<feColorMatrix in="SourceAlpha" type="matrix" values="0 0 0 0 0 0 0 0 0 0 0 0 0 0 0 0 0 0 127 0" result="hardAlpha"/>
<feOffset dx="10" dy="20"/>
<feGaussianBlur stdDeviation="12"/>
<feColorMatrix type="matrix" values="0 0 0 0 0.2 0 0 0 0 0.501961 0 0 0 0 0.533333 0 0 0 0.1 0"/>
<feBlend mode="normal" in2="BackgroundImageFix" result="effect1_dropShadow_915_401"/>
<feBlend mode="normal" in="SourceGraphic" in2="effect1_dropShadow_915_401" result="shape"/>
</filter>
<filter id="filter3_d_915_401" x="32" y="94" width="130" height="130" filterUnits="userSpaceOnUse" color-interpolation-filters="sRGB">
<feFlood flood-opacity="0" result="BackgroundImageFix"/>
<feColorMatrix in="SourceAlpha" type="matrix" values="0 0 0 0 0 0 0 0 0 0 0 0 0 0 0 0 0 0 127 0" result="hardAlpha"/>
<feOffset dx="10" dy="20"/>
<feGaussianBlur stdDeviation="12"/>
<feColorMatrix type="matrix" values="0 0 0 0 0.2 0 0 0 0 0.501961 0 0 0 0 0.533333 0 0 0 0.1 0"/>
<feBlend mode="normal" in2="BackgroundImageFix" result="effect1_dropShadow_915_401"/>
<feBlend mode="normal" in="SourceGraphic" in2="effect1_dropShadow_915_401" result="shape"/>
</filter>
<filter id="filter4_di_915_401" x="143.858" y="183.962" width="173.061" height="280.791" filterUnits="userSpaceOnUse" color-interpolation-filters="sRGB">
<feFlood flood-opacity="0" result="BackgroundImageFix"/>
<feColorMatrix in="SourceAlpha" type="matrix" values="0 0 0 0 0 0 0 0 0 0 0 0 0 0 0 0 0 0 127 0" result="hardAlpha"/>
<feOffset dy="1.08557"/>
<feGaussianBlur stdDeviation="4.0709"/>
<feComposite in2="hardAlpha" operator="out"/>
<feColorMatrix type="matrix" values="0 0 0 0 0 0 0 0 0 0 0 0 0 0 0 0 0 0 0.12 0"/>
<feBlend mode="normal" in2="BackgroundImageFix" result="effect1_dropShadow_915_401"/>
<feBlend mode="normal" in="SourceGraphic" in2="effect1_dropShadow_915_401" result="shape"/>
<feColorMatrix in="SourceAlpha" type="matrix" values="0 0 0 0 0 0 0 0 0 0 0 0 0 0 0 0 0 0 127 0" result="hardAlpha"/>
<feOffset dy="19.908"/>
<feGaussianBlur stdDeviation="9.95402"/>
<feComposite in2="hardAlpha" operator="arithmetic" k2="-1" k3="1"/>
<feColorMatrix type="matrix" values="0 0 0 0 0 0 0 0 0 0 0 0 0 0 0 0 0 0 0.1 0"/>
<feBlend mode="difference" in2="shape" result="effect2_innerShadow_915_401"/>
</filter>
<filter id="filter5_di_915_401" x="320.077" y="183.944" width="173.061" height="280.791" filterUnits="userSpaceOnUse" color-interpolation-filters="sRGB">
<feFlood flood-opacity="0" result="BackgroundImageFix"/>
<feColorMatrix in="SourceAlpha" type="matrix" values="0 0 0 0 0 0 0 0 0 0 0 0 0 0 0 0 0 0 127 0" result="hardAlpha"/>
<feOffset dy="1.08557"/>
<feGaussianBlur stdDeviation="4.0709"/>
<feComposite in2="hardAlpha" operator="out"/>
<feColorMatrix type="matrix" values="0 0 0 0 0 0 0 0 0 0 0 0 0 0 0 0 0 0 0.12 0"/>
<feBlend mode="normal" in2="BackgroundImageFix" result="effect1_dropShadow_915_401"/>
<feBlend mode="normal" in="SourceGraphic" in2="effect1_dropShadow_915_401" result="shape"/>
<feColorMatrix in="SourceAlpha" type="matrix" values="0 0 0 0 0 0 0 0 0 0 0 0 0 0 0 0 0 0 127 0" result="hardAlpha"/>
<feOffset dy="19.908"/>
<feGaussianBlur stdDeviation="9.95402"/>
<feComposite in2="hardAlpha" operator="arithmetic" k2="-1" k3="1"/>
<feColorMatrix type="matrix" values="0 0 0 0 0 0 0 0 0 0 0 0 0 0 0 0 0 0 0.1 0"/>
<feBlend mode="difference" in2="shape" result="effect2_innerShadow_915_401"/>
</filter>
</defs>
</svg>
