<svg width="319" height="127" viewBox="0 0 319 127" fill="none" xmlns="http://www.w3.org/2000/svg">
<g filter="url(#filter0_i_594_226)">
<path d="M234.511 64.5601V46.2837L200.646 73.1608L234.511 101.113V87.6744L220.535 76.386L234.511 64.5601Z" fill="url(#paint0_linear_594_226)"/>
</g>
<g filter="url(#filter1_i_594_226)">
<path d="M238.715 82.833V101.109L272.581 74.2323L238.715 46.2801V59.7187L252.692 71.0071L238.715 82.833Z" fill="url(#paint1_linear_594_226)"/>
</g>
<g filter="url(#filter2_d_594_226)">
<path d="M292.873 55.4237V46.2265H283.365V100.997H293.286V73.7149C293.286 61.7275 299.9 55.2171 310.544 55.2171C311.267 55.2171 311.99 55.2171 312.817 55.3204V45.7098C303.207 45.7098 296.386 49.0167 292.873 55.4237Z" fill="#121212"/>
</g>
<g filter="url(#filter3_d_594_226)">
<path d="M21.1847 92.007V68.6522H57.4569V59.8683H21.1847V37.6503H61.9005V28.6597H10.8507V100.998H63.3473V92.007H21.1847ZM101.799 101.618C111.616 101.618 119.78 97.484 124.12 89.8369L116.576 85.0832C113.063 90.4569 107.689 92.9371 101.695 92.9371C90.9479 92.9371 82.8874 85.4966 82.8874 73.6125C82.8874 61.9351 90.9479 54.3913 101.695 54.3913C107.689 54.3913 113.063 56.8715 116.576 62.2451L124.12 57.3882C119.78 49.741 111.616 45.7108 101.799 45.7108C84.9542 45.7108 72.8634 57.2848 72.8634 73.6125C72.8634 89.9402 84.9542 101.618 101.799 101.618ZM165.503 45.7108C157.132 45.7108 150.312 48.7076 146.178 53.978V24.3194H136.258V100.998H146.178V72.7858C146.178 60.9017 152.999 54.598 163.539 54.598C172.943 54.598 178.317 59.8683 178.317 70.6157V100.998H188.237V69.4789C188.237 53.3579 178.834 45.7108 165.503 45.7108Z" fill="#121212"/>
</g>
<defs>
<filter id="filter0_i_594_226" x="200.646" y="46.2837" width="33.8652" height="59.1294" filterUnits="userSpaceOnUse" color-interpolation-filters="sRGB">
<feFlood flood-opacity="0" result="BackgroundImageFix"/>
<feBlend mode="normal" in="SourceGraphic" in2="BackgroundImageFix" result="shape"/>
<feColorMatrix in="SourceAlpha" type="matrix" values="0 0 0 0 0 0 0 0 0 0 0 0 0 0 0 0 0 0 127 0" result="hardAlpha"/>
<feOffset dy="4.30033"/>
<feGaussianBlur stdDeviation="2.15017"/>
<feComposite in2="hardAlpha" operator="arithmetic" k2="-1" k3="1"/>
<feColorMatrix type="matrix" values="0 0 0 0 0 0 0 0 0 0 0 0 0 0 0 0 0 0 0.1 0"/>
<feBlend mode="difference" in2="shape" result="effect1_innerShadow_594_226"/>
</filter>
<filter id="filter1_i_594_226" x="238.715" y="46.2803" width="33.8652" height="59.1294" filterUnits="userSpaceOnUse" color-interpolation-filters="sRGB">
<feFlood flood-opacity="0" result="BackgroundImageFix"/>
<feBlend mode="normal" in="SourceGraphic" in2="BackgroundImageFix" result="shape"/>
<feColorMatrix in="SourceAlpha" type="matrix" values="0 0 0 0 0 0 0 0 0 0 0 0 0 0 0 0 0 0 127 0" result="hardAlpha"/>
<feOffset dy="4.30033"/>
<feGaussianBlur stdDeviation="2.15017"/>
<feComposite in2="hardAlpha" operator="arithmetic" k2="-1" k3="1"/>
<feColorMatrix type="matrix" values="0 0 0 0 0 0 0 0 0 0 0 0 0 0 0 0 0 0 0.1 0"/>
<feBlend mode="difference" in2="shape" result="effect1_innerShadow_594_226"/>
</filter>
<filter id="filter2_d_594_226" x="277.3" y="43.6883" width="41.582" height="67.4164" filterUnits="userSpaceOnUse" color-interpolation-filters="sRGB">
<feFlood flood-opacity="0" result="BackgroundImageFix"/>
<feColorMatrix in="SourceAlpha" type="matrix" values="0 0 0 0 0 0 0 0 0 0 0 0 0 0 0 0 0 0 127 0" result="hardAlpha"/>
<feOffset dy="4.04327"/>
<feGaussianBlur stdDeviation="3.03246"/>
<feComposite in2="hardAlpha" operator="out"/>
<feColorMatrix type="matrix" values="0 0 0 0 0.160784 0 0 0 0 0.219608 0 0 0 0 0.564706 0 0 0 0.12 0"/>
<feBlend mode="normal" in2="BackgroundImageFix" result="effect1_dropShadow_594_226"/>
<feBlend mode="normal" in="SourceGraphic" in2="effect1_dropShadow_594_226" result="shape"/>
</filter>
<filter id="filter3_d_594_226" x="4.78567" y="22.2977" width="189.517" height="89.4282" filterUnits="userSpaceOnUse" color-interpolation-filters="sRGB">
<feFlood flood-opacity="0" result="BackgroundImageFix"/>
<feColorMatrix in="SourceAlpha" type="matrix" values="0 0 0 0 0 0 0 0 0 0 0 0 0 0 0 0 0 0 127 0" result="hardAlpha"/>
<feOffset dy="4.04327"/>
<feGaussianBlur stdDeviation="3.03246"/>
<feComposite in2="hardAlpha" operator="out"/>
<feColorMatrix type="matrix" values="0 0 0 0 0.160784 0 0 0 0 0.219608 0 0 0 0 0.564706 0 0 0 0.12 0"/>
<feBlend mode="normal" in2="BackgroundImageFix" result="effect1_dropShadow_594_226"/>
<feBlend mode="normal" in="SourceGraphic" in2="effect1_dropShadow_594_226" result="shape"/>
</filter>
<linearGradient id="paint0_linear_594_226" x1="200.646" y1="73.6983" x2="234.511" y2="73.6983" gradientUnits="userSpaceOnUse">
<stop stop-color="#F83600"/>
<stop offset="1" stop-color="#F9D423"/>
</linearGradient>
<linearGradient id="paint1_linear_594_226" x1="272.581" y1="73.6948" x2="238.715" y2="73.6948" gradientUnits="userSpaceOnUse">
<stop stop-color="#F83600"/>
<stop offset="1" stop-color="#F9D423"/>
</linearGradient>
</defs>
</svg>
