<svg width="279" height="111" viewBox="0 0 279 111" fill="none" xmlns="http://www.w3.org/2000/svg">
<g filter="url(#filter0_i_594_226)">
<path d="M204.945 56.5459V40.5737L175.349 64.0622L204.945 88.4903V76.746L192.731 66.8809L204.945 56.5459Z" fill="url(#paint0_linear_594_226)"/>
</g>
<g filter="url(#filter1_i_594_226)">
<path d="M208.619 72.5151V88.4873L238.215 64.9988L208.619 40.5707V52.315L220.833 62.1802L208.619 72.5151Z" fill="url(#paint1_linear_594_226)"/>
</g>
<g filter="url(#filter2_d_594_226)">
<path d="M247.64 87.9966V40.1317H255.948V53.1365L255.136 49.8853C256.46 46.5739 258.688 44.0452 261.819 42.2992C264.949 40.5532 268.803 39.6802 273.378 39.6802V48.0791C273.017 48.0189 272.656 47.9888 272.295 47.9888C271.994 47.9888 271.693 47.9888 271.392 47.9888C266.756 47.9888 263.083 49.3735 260.374 52.1431C257.664 54.9126 256.31 58.9164 256.31 64.1545V87.9966H247.64Z" fill="#121212"/>
</g>
<g filter="url(#filter3_d_594_226)">
<path d="M17.701 52.0538H50.213V59.7302H17.701V52.0538ZM18.5138 80.1405H55.3607V87.9976H9.48266V24.7798H54.0963V32.6369H18.5138V80.1405ZM88.9642 88.5394C84.0874 88.5394 79.7223 87.4858 75.8691 85.3785C72.076 83.2713 69.0957 80.3813 66.9283 76.7087C64.7608 73.036 63.6771 68.8215 63.6771 64.0651C63.6771 59.3087 64.7608 55.0942 66.9283 51.4216C69.0957 47.7489 72.076 44.8891 75.8691 42.842C79.7223 40.7348 84.0874 39.6811 88.9642 39.6811C93.2991 39.6811 97.1524 40.5541 100.524 42.3002C103.956 43.986 106.605 46.5147 108.471 49.8863L101.879 54.1309C100.313 51.7828 98.3866 50.0669 96.0987 48.9832C93.8711 47.8392 91.4628 47.2673 88.8739 47.2673C85.7431 47.2673 82.9434 47.9596 80.4749 49.3444C78.0064 50.7292 76.0497 52.6859 74.6047 55.2146C73.1597 57.6831 72.4372 60.6333 72.4372 64.0651C72.4372 67.4969 73.1597 70.4772 74.6047 73.0059C76.0497 75.5346 78.0064 77.4914 80.4749 78.8761C82.9434 80.2609 85.7431 80.9533 88.8739 80.9533C91.4628 80.9533 93.8711 80.4114 96.0987 79.3277C98.3866 78.1838 100.313 76.4377 101.879 74.0897L108.471 78.244C106.605 81.5554 103.956 84.1142 100.524 85.9204C97.1524 87.6664 93.2991 88.5394 88.9642 88.5394ZM144.637 39.6811C148.55 39.6811 151.982 40.4337 154.932 41.9389C157.943 43.4441 160.291 45.732 161.976 48.8026C163.662 51.8731 164.505 55.7565 164.505 60.4527V87.9976H155.835V61.4461C155.835 56.8101 154.691 53.3181 152.403 50.97C150.176 48.6219 147.015 47.4479 142.921 47.4479C139.85 47.4479 137.171 48.05 134.883 49.2541C132.595 50.4583 130.819 52.2344 129.555 54.5825C128.351 56.9306 127.749 59.8506 127.749 63.3426V87.9976H119.079V20.9867H127.749V53.0472L126.033 49.6154C127.598 46.4846 130.006 44.0462 133.258 42.3002C136.509 40.5541 140.302 39.6811 144.637 39.6811Z" fill="#121212"/>
</g>
<defs>
<filter id="filter0_i_594_226" x="175.349" y="40.5737" width="29.5957" height="51.6747" filterUnits="userSpaceOnUse" color-interpolation-filters="sRGB">
<feFlood flood-opacity="0" result="BackgroundImageFix"/>
<feBlend mode="normal" in="SourceGraphic" in2="BackgroundImageFix" result="shape"/>
<feColorMatrix in="SourceAlpha" type="matrix" values="0 0 0 0 0 0 0 0 0 0 0 0 0 0 0 0 0 0 127 0" result="hardAlpha"/>
<feOffset dy="3.75816"/>
<feGaussianBlur stdDeviation="1.87908"/>
<feComposite in2="hardAlpha" operator="arithmetic" k2="-1" k3="1"/>
<feColorMatrix type="matrix" values="0 0 0 0 0 0 0 0 0 0 0 0 0 0 0 0 0 0 0.1 0"/>
<feBlend mode="difference" in2="shape" result="effect1_innerShadow_594_226"/>
</filter>
<filter id="filter1_i_594_226" x="208.619" y="40.5708" width="29.5957" height="51.6747" filterUnits="userSpaceOnUse" color-interpolation-filters="sRGB">
<feFlood flood-opacity="0" result="BackgroundImageFix"/>
<feBlend mode="normal" in="SourceGraphic" in2="BackgroundImageFix" result="shape"/>
<feColorMatrix in="SourceAlpha" type="matrix" values="0 0 0 0 0 0 0 0 0 0 0 0 0 0 0 0 0 0 127 0" result="hardAlpha"/>
<feOffset dy="3.75816"/>
<feGaussianBlur stdDeviation="1.87908"/>
<feComposite in2="hardAlpha" operator="arithmetic" k2="-1" k3="1"/>
<feColorMatrix type="matrix" values="0 0 0 0 0 0 0 0 0 0 0 0 0 0 0 0 0 0 0.1 0"/>
<feBlend mode="difference" in2="shape" result="effect1_innerShadow_594_226"/>
</filter>
<filter id="filter2_d_594_226" x="242.339" y="37.9134" width="36.3393" height="58.9169" filterUnits="userSpaceOnUse" color-interpolation-filters="sRGB">
<feFlood flood-opacity="0" result="BackgroundImageFix"/>
<feColorMatrix in="SourceAlpha" type="matrix" values="0 0 0 0 0 0 0 0 0 0 0 0 0 0 0 0 0 0 127 0" result="hardAlpha"/>
<feOffset dy="3.53351"/>
<feGaussianBlur stdDeviation="2.65013"/>
<feComposite in2="hardAlpha" operator="out"/>
<feColorMatrix type="matrix" values="0 0 0 0 0.160784 0 0 0 0 0.219608 0 0 0 0 0.564706 0 0 0 0.12 0"/>
<feBlend mode="normal" in2="BackgroundImageFix" result="effect1_dropShadow_594_226"/>
<feBlend mode="normal" in="SourceGraphic" in2="effect1_dropShadow_594_226" result="shape"/>
</filter>
<filter id="filter3_d_594_226" x="4.18215" y="19.2201" width="165.623" height="78.1533" filterUnits="userSpaceOnUse" color-interpolation-filters="sRGB">
<feFlood flood-opacity="0" result="BackgroundImageFix"/>
<feColorMatrix in="SourceAlpha" type="matrix" values="0 0 0 0 0 0 0 0 0 0 0 0 0 0 0 0 0 0 127 0" result="hardAlpha"/>
<feOffset dy="3.53351"/>
<feGaussianBlur stdDeviation="2.65013"/>
<feComposite in2="hardAlpha" operator="out"/>
<feColorMatrix type="matrix" values="0 0 0 0 0.160784 0 0 0 0 0.219608 0 0 0 0 0.564706 0 0 0 0.12 0"/>
<feBlend mode="normal" in2="BackgroundImageFix" result="effect1_dropShadow_594_226"/>
<feBlend mode="normal" in="SourceGraphic" in2="effect1_dropShadow_594_226" result="shape"/>
</filter>
<linearGradient id="paint0_linear_594_226" x1="175.349" y1="64.532" x2="204.945" y2="64.532" gradientUnits="userSpaceOnUse">
<stop stop-color="#F83600"/>
<stop offset="1" stop-color="#F9D423"/>
</linearGradient>
<linearGradient id="paint1_linear_594_226" x1="238.215" y1="64.529" x2="208.619" y2="64.529" gradientUnits="userSpaceOnUse">
<stop stop-color="#F83600"/>
<stop offset="1" stop-color="#F9D423"/>
</linearGradient>
</defs>
</svg>
