<svg width="202" height="49" viewBox="0 0 202 49" fill="none" xmlns="http://www.w3.org/2000/svg">
<g filter="url(#filter0_i_931_283)">
<path d="M79.6768 21.5963V15.3867L68.1709 24.5184L79.6768 34.0154V29.4495L74.9284 25.6142L79.6768 21.5963Z" fill="url(#paint0_linear_931_283)"/>
</g>
<g filter="url(#filter1_i_931_283)">
<path d="M81.1044 27.8048V34.0144L92.6104 24.8827L81.1044 15.3857V19.9516L85.8529 23.7869L81.1044 27.8048Z" fill="url(#paint1_linear_931_283)"/>
</g>
<g filter="url(#filter2_d_931_283)">
<path d="M100.136 17.9896V15.251H95.9582V34H100.347V24.9064C100.347 21.0793 102.454 19.1131 105.789 19.1131C106.105 19.1131 106.421 19.1483 106.807 19.2185V15.0403C103.682 15.0403 101.4 16.0234 100.136 17.9896Z" fill="white"/>
</g>
<g filter="url(#filter3_d_931_283)">
<path d="M7.86476 30.1732V23.3969H19.7321V19.64H7.86476V13.2499H21.2419V9.42288H3.30039V34.0002H21.7334V30.1732H7.86476ZM34.831 34.246C38.4825 34.246 41.3967 32.666 42.8362 29.8572L39.4656 27.891C38.3421 29.6817 36.6568 30.4892 34.7959 30.4892C31.5657 30.4892 29.108 28.2772 29.108 24.6257C29.108 21.0094 31.5657 18.7623 34.7959 18.7623C36.6568 18.7623 38.3421 19.5698 39.4656 21.3605L42.8362 19.3943C41.3967 16.5503 38.4825 15.0406 34.831 15.0406C28.8973 15.0406 24.6841 19.0081 24.6841 24.6257C24.6841 30.2434 28.8973 34.246 34.831 34.246ZM57.0971 15.0406C54.4989 15.0406 52.287 15.8832 50.8474 17.4281V7.94824H46.4586V34.0002H50.8474V24.5204C50.8474 20.7636 52.9541 18.8676 56.0789 18.8676C58.8877 18.8676 60.5379 20.4827 60.5379 23.8182V34.0002H64.9268V23.2564C64.9268 17.6036 61.5913 15.0406 57.0971 15.0406Z" fill="white"/>
</g>
<g filter="url(#filter4_d_931_283)">
<path d="M123.494 34H128.058V13.2848H136.204V9.42264H115.348V13.2848H123.494V34ZM154.914 24.7308C154.914 18.8674 150.911 15.0403 145.434 15.0403C139.851 15.0403 135.743 19.0429 135.743 24.6255C135.743 30.2081 139.816 34.2458 146.101 34.2458C149.331 34.2458 151.964 33.1925 153.65 31.1912L151.297 28.4876C149.963 29.857 148.313 30.5241 146.206 30.5241C142.941 30.5241 140.659 28.7685 140.132 26.0299H154.843C154.879 25.6086 154.914 25.0819 154.914 24.7308ZM145.434 18.5514C148.313 18.5514 150.384 20.4122 150.735 23.1157H140.097C140.518 20.3771 142.59 18.5514 145.434 18.5514ZM167.731 34.2458C171.383 34.2458 174.297 32.6658 175.737 29.857L172.366 27.8908C171.242 29.6814 169.557 30.4889 167.696 30.4889C164.466 30.4889 162.008 28.277 162.008 24.6255C162.008 21.0091 164.466 18.762 167.696 18.762C169.557 18.762 171.242 19.5696 172.366 21.3602L175.737 19.394C174.297 16.5501 171.383 15.0403 167.731 15.0403C161.798 15.0403 157.584 19.0078 157.584 24.6255C157.584 30.2432 161.798 34.2458 167.731 34.2458ZM189.998 15.0403C187.399 15.0403 185.187 15.883 183.748 17.4278V7.948H179.359V34H183.748V24.5202C183.748 20.7633 185.854 18.8674 188.979 18.8674C191.788 18.8674 193.438 20.4825 193.438 23.8179V34H197.827V23.2562C197.827 17.6034 194.492 15.0403 189.998 15.0403Z" fill="white"/>
</g>
<defs>
<filter id="filter0_i_931_283" x="68.1709" y="15.3867" width="11.5059" height="20.0897" filterUnits="userSpaceOnUse" color-interpolation-filters="sRGB">
<feFlood flood-opacity="0" result="BackgroundImageFix"/>
<feBlend mode="normal" in="SourceGraphic" in2="BackgroundImageFix" result="shape"/>
<feColorMatrix in="SourceAlpha" type="matrix" values="0 0 0 0 0 0 0 0 0 0 0 0 0 0 0 0 0 0 127 0" result="hardAlpha"/>
<feOffset dy="1.46107"/>
<feGaussianBlur stdDeviation="0.730536"/>
<feComposite in2="hardAlpha" operator="arithmetic" k2="-1" k3="1"/>
<feColorMatrix type="matrix" values="0 0 0 0 0 0 0 0 0 0 0 0 0 0 0 0 0 0 0.1 0"/>
<feBlend mode="difference" in2="shape" result="effect1_innerShadow_931_283"/>
</filter>
<filter id="filter1_i_931_283" x="81.1045" y="15.3857" width="11.5059" height="20.0897" filterUnits="userSpaceOnUse" color-interpolation-filters="sRGB">
<feFlood flood-opacity="0" result="BackgroundImageFix"/>
<feBlend mode="normal" in="SourceGraphic" in2="BackgroundImageFix" result="shape"/>
<feColorMatrix in="SourceAlpha" type="matrix" values="0 0 0 0 0 0 0 0 0 0 0 0 0 0 0 0 0 0 127 0" result="hardAlpha"/>
<feOffset dy="1.46107"/>
<feGaussianBlur stdDeviation="0.730536"/>
<feComposite in2="hardAlpha" operator="arithmetic" k2="-1" k3="1"/>
<feColorMatrix type="matrix" values="0 0 0 0 0 0 0 0 0 0 0 0 0 0 0 0 0 0 0.1 0"/>
<feBlend mode="difference" in2="shape" result="effect1_innerShadow_931_283"/>
</filter>
<filter id="filter2_d_931_283" x="93.8974" y="14.3534" width="14.9708" height="23.0809" filterUnits="userSpaceOnUse" color-interpolation-filters="sRGB">
<feFlood flood-opacity="0" result="BackgroundImageFix"/>
<feColorMatrix in="SourceAlpha" type="matrix" values="0 0 0 0 0 0 0 0 0 0 0 0 0 0 0 0 0 0 127 0" result="hardAlpha"/>
<feOffset dy="1.37373"/>
<feGaussianBlur stdDeviation="1.0303"/>
<feComposite in2="hardAlpha" operator="out"/>
<feColorMatrix type="matrix" values="0 0 0 0 0.160784 0 0 0 0 0.219608 0 0 0 0 0.564706 0 0 0 0.12 0"/>
<feBlend mode="normal" in2="BackgroundImageFix" result="effect1_dropShadow_931_283"/>
<feBlend mode="normal" in="SourceGraphic" in2="effect1_dropShadow_931_283" result="shape"/>
</filter>
<filter id="filter3_d_931_283" x="1.24018" y="7.26137" width="65.7472" height="30.4191" filterUnits="userSpaceOnUse" color-interpolation-filters="sRGB">
<feFlood flood-opacity="0" result="BackgroundImageFix"/>
<feColorMatrix in="SourceAlpha" type="matrix" values="0 0 0 0 0 0 0 0 0 0 0 0 0 0 0 0 0 0 127 0" result="hardAlpha"/>
<feOffset dy="1.37373"/>
<feGaussianBlur stdDeviation="1.0303"/>
<feComposite in2="hardAlpha" operator="out"/>
<feColorMatrix type="matrix" values="0 0 0 0 0.160784 0 0 0 0 0.219608 0 0 0 0 0.564706 0 0 0 0.12 0"/>
<feBlend mode="normal" in2="BackgroundImageFix" result="effect1_dropShadow_931_283"/>
<feBlend mode="normal" in="SourceGraphic" in2="effect1_dropShadow_931_283" result="shape"/>
</filter>
<filter id="filter4_d_931_283" x="113.288" y="7.26113" width="86.5997" height="30.4191" filterUnits="userSpaceOnUse" color-interpolation-filters="sRGB">
<feFlood flood-opacity="0" result="BackgroundImageFix"/>
<feColorMatrix in="SourceAlpha" type="matrix" values="0 0 0 0 0 0 0 0 0 0 0 0 0 0 0 0 0 0 127 0" result="hardAlpha"/>
<feOffset dy="1.37373"/>
<feGaussianBlur stdDeviation="1.0303"/>
<feComposite in2="hardAlpha" operator="out"/>
<feColorMatrix type="matrix" values="0 0 0 0 0.160784 0 0 0 0 0.219608 0 0 0 0 0.564706 0 0 0 0.12 0"/>
<feBlend mode="normal" in2="BackgroundImageFix" result="effect1_dropShadow_931_283"/>
<feBlend mode="normal" in="SourceGraphic" in2="effect1_dropShadow_931_283" result="shape"/>
</filter>
<linearGradient id="paint0_linear_931_283" x1="68.1709" y1="24.7011" x2="79.6768" y2="24.7011" gradientUnits="userSpaceOnUse">
<stop stop-color="#F83600"/>
<stop offset="1" stop-color="#F9D423"/>
</linearGradient>
<linearGradient id="paint1_linear_931_283" x1="92.6104" y1="24.7001" x2="81.1044" y2="24.7001" gradientUnits="userSpaceOnUse">
<stop stop-color="#F83600"/>
<stop offset="1" stop-color="#F9D423"/>
</linearGradient>
</defs>
</svg>
