<svg width="40" height="59" viewBox="0 0 40 59" fill="none" xmlns="http://www.w3.org/2000/svg">
<g clip-path="url(#clip0_746_354)">
<path d="M19.668 29.5001C19.668 24.1247 24.0256 19.7668 29.4012 19.7668C34.7766 19.7668 39.1344 24.1247 39.1344 29.5001C39.1344 34.8756 34.7766 39.2333 29.4012 39.2333C24.0256 39.2333 19.668 34.8756 19.668 29.5001Z" fill="#1ABCFE"/>
<path d="M0.199219 48.9664C0.199219 43.591 4.55693 39.2332 9.93244 39.2332H19.6657V48.9664C19.6657 54.3419 15.308 58.6996 9.93244 58.6996C4.55693 58.6996 0.199219 54.3419 0.199219 48.9664Z" fill="#0ACF83"/>
<path d="M19.668 0.300293V19.7667H29.4012C34.7767 19.7667 39.1344 15.409 39.1344 10.0335C39.1344 4.65801 34.7767 0.300293 29.4012 0.300293H19.668Z" fill="#FF7262"/>
<path d="M0.199219 10.0335C0.199219 15.409 4.55693 19.7667 9.93244 19.7667H19.6657V0.300293H9.93244C4.55693 0.300293 0.199219 4.658 0.199219 10.0335Z" fill="#F24E1E"/>
<path d="M0.199219 29.5001C0.199219 34.8756 4.55693 39.2333 9.93244 39.2333H19.6657V19.7668H9.93244C4.55693 19.7668 0.199219 24.1247 0.199219 29.5001Z" fill="#A259FF"/>
</g>
<defs>
<clipPath id="clip0_746_354">
<rect width="39.3333" height="59" fill="white"/>
</clipPath>
</defs>
</svg>
