<svg width="48" height="64" viewBox="0 0 48 64" fill="none" xmlns="http://www.w3.org/2000/svg">
<g clip-path="url(#clip0_893_365)">
<path d="M1.50974 40.777L7.73442 1.2006C7.78054 0.906721 7.91845 0.634661 8.12864 0.422852C8.33885 0.211043 8.61072 0.0701927 8.90589 0.0201957C9.20104 -0.0298013 9.50455 0.013583 9.77353 0.14422C10.0425 0.274858 10.2634 0.486144 10.405 0.748235L17.0982 13.152L1.50974 40.777ZM45.7172 50.3799L39.7908 13.956C39.7478 13.6987 39.6343 13.4582 39.4626 13.261C39.2909 13.0638 39.0678 12.9174 38.8178 12.838C38.5677 12.7586 38.3005 12.7493 38.0454 12.8111C37.7905 12.8729 37.5576 13.0034 37.3723 13.1882L0 50.3799L20.6813 61.8992C21.3191 62.2544 22.0378 62.4417 22.769 62.443C23.5004 62.4442 24.2198 62.2594 24.8587 61.9061L45.7172 50.3799ZM28.9119 18.5946L24.1236 9.53836C24.0026 9.30931 23.8208 9.11753 23.5979 8.98372C23.375 8.8499 23.1195 8.77919 22.8592 8.77919C22.5988 8.77919 22.3433 8.8499 22.1204 8.98372C21.8975 9.11753 21.7157 9.30931 21.5945 9.53836L0.565751 46.8036L28.9119 18.5946Z" fill="#FFC621"/>
</g>
<defs>
<clipPath id="clip0_893_365">
<rect width="47.5429" height="64" fill="white"/>
</clipPath>
</defs>
</svg>
