<svg width="32" height="65" viewBox="0 0 32 65" fill="none" xmlns="http://www.w3.org/2000/svg">
<path d="M29.2162 26.0405C25.9026 11.3347 18.9871 7.41876 17.2324 4.65065C16.2786 3.14485 15.3061 0.856445 15.3061 0.856445C15.211 2.16079 15.0425 2.98688 13.936 3.97818C11.7202 5.96514 2.30373 13.684 1.51278 30.3941C0.775141 45.9738 12.8944 55.5825 14.5051 56.5753C15.7355 57.184 17.2424 56.5869 17.9628 56.0289C23.8034 51.9941 31.7936 41.2362 29.209 26.0405" fill="#10AA50"/>
<path d="M15.8103 48.2764C15.5063 52.1343 15.2873 54.3793 14.5137 56.5793C14.5137 56.5793 15.0237 60.2503 15.3781 64.1401H16.6416C16.9432 61.4005 17.4036 58.6809 18.0204 55.9952C16.3837 55.188 15.8723 51.6604 15.8103 48.2764Z" fill="#B8C4C2"/>
<path d="M18.0176 55.9986C16.3637 55.2305 15.8853 51.632 15.8119 48.2769C16.2194 42.7454 16.3372 37.1962 16.1648 31.6522C16.0784 28.7436 16.2081 4.70732 15.4531 1.18848C15.7586 1.87688 16.4962 3.49427 17.2338 4.64935C18.9958 7.41891 25.9055 11.3349 29.2162 26.0421C31.7965 41.1986 23.8539 51.9378 18.0176 55.9986Z" fill="#12924F"/>
</svg>
