<svg width="105" height="64" viewBox="0 0 105 64" fill="none" xmlns="http://www.w3.org/2000/svg">
<g clip-path="url(#clip0_893_300)">
<path d="M51.6997 64.0001C51.3545 64.0001 51.0117 63.9096 50.709 63.7355L47.5555 61.8703C47.0845 61.6071 47.3143 61.5141 47.4696 61.4604C48.0977 61.2407 48.2251 61.1911 48.8954 60.8108C48.9659 60.7707 49.0581 60.7848 49.1302 60.8274L51.5529 62.2636C51.6404 62.3109 51.7645 62.3109 51.8456 62.2636L61.2918 56.8163C61.3792 56.7667 61.436 56.6651 61.436 56.5611V45.6712C61.436 45.5625 61.3792 45.4657 61.2899 45.4114L51.8475 39.9688C51.76 39.9168 51.6442 39.9168 51.5567 39.9688L42.1162 45.4114C42.0247 45.4633 41.9665 45.5649 41.9665 45.6688V56.5588C41.9665 56.6627 42.0233 56.7619 42.1131 56.8115L44.6999 58.3045C46.1044 59.0061 46.9627 58.1793 46.9627 57.3478V46.5996C46.9627 46.446 47.0833 46.3279 47.237 46.3279H48.4334C48.5824 46.3279 48.7053 46.446 48.7053 46.5996V57.3525C48.7053 59.2234 47.6839 60.2982 45.9081 60.2982C45.3619 60.2982 44.9316 60.2982 43.7304 59.7077L41.2524 58.2809C40.64 57.9265 40.2617 57.2651 40.2617 56.5588V45.6688C40.2617 44.9602 40.64 44.2987 41.2524 43.9491L50.7081 38.4994C51.3063 38.1616 52.1007 38.1616 52.6942 38.4994L62.138 43.9515C62.748 44.3035 63.1287 44.9625 63.1287 45.6712V56.5611C63.1287 57.2675 62.748 57.9265 62.138 58.2809L52.6942 63.7306C52.3916 63.9054 52.0487 63.9951 51.6988 63.9951" fill="#689F63"/>
<path d="M54.6169 56.4968C50.4838 56.4968 49.6172 54.6014 49.6172 53.0116C49.6172 52.8604 49.7392 52.7399 49.8908 52.7399H51.1108C51.2456 52.7399 51.3591 52.838 51.3804 52.971C51.5648 54.213 52.1134 54.8395 54.6127 54.8395C56.6036 54.8395 57.45 54.3902 57.45 53.3355C57.45 52.7284 57.2089 52.2772 54.1161 51.9748C51.5294 51.7197 49.931 51.1504 49.931 49.0834C49.931 47.1795 51.5388 46.0456 54.232 46.0456C57.2562 46.0456 58.7552 47.0944 58.9444 49.348C58.9515 49.4259 58.9231 49.5015 58.8711 49.5582C58.8191 49.6126 58.7458 49.6456 58.6701 49.6456H57.4429C57.3153 49.6456 57.2041 49.5559 57.1781 49.433C56.8826 48.1267 56.1685 47.7086 54.2272 47.7086C52.0543 47.7086 51.8013 48.4645 51.8013 49.0315C51.8013 49.7189 52.0992 49.9197 55.0312 50.3071C57.9348 50.6921 59.3133 51.2354 59.3133 53.274C59.3133 55.3292 57.5966 56.5079 54.6032 56.5079M66.1088 44.9589H66.4257C66.6857 44.9589 66.7354 44.7771 66.7354 44.6708C66.7354 44.392 66.5439 44.392 66.4375 44.392H66.1112L66.1088 44.9589ZM65.7234 44.066H66.4257C66.6668 44.066 67.1397 44.066 67.1397 44.6046C67.1397 44.9802 66.8986 45.0582 66.7543 45.1054C67.0357 45.1243 67.0546 45.3086 67.0924 45.5684C67.1114 45.7314 67.1421 46.0125 67.1988 46.107H66.7661C66.7543 46.0125 66.6881 45.4928 66.6881 45.4645C66.6597 45.3487 66.6195 45.292 66.4753 45.292H66.1183V46.1094H65.7234V44.066ZM64.8793 45.0818C64.8793 45.9275 65.5626 46.6125 66.402 46.6125C67.2485 46.6125 67.9318 45.9133 67.9318 45.0818C67.9318 44.2337 67.239 43.5605 66.3996 43.5605C65.5721 43.5605 64.8769 44.2243 64.8769 45.0794M68.225 45.0865C68.225 46.0881 67.4046 46.9054 66.4044 46.9054C65.4113 46.9054 64.5837 46.0975 64.5837 45.0865C64.5837 44.0566 65.4302 43.2676 66.4044 43.2676C67.3856 43.2676 68.2227 44.0589 68.2227 45.0865" fill="#689F63"/>
<path fill-rule="evenodd" clip-rule="evenodd" d="M22.4476 21.3901C22.4476 20.9554 22.2182 20.5562 21.8427 20.34L11.8277 14.5833C11.6586 14.484 11.4692 14.4321 11.2772 14.425H11.1736C10.9817 14.4321 10.7923 14.484 10.6204 14.5833L0.605783 20.34C0.232666 20.5574 0 20.9566 0 21.3912L0.0219898 36.897C0.0219898 37.112 0.133121 37.3128 0.32228 37.4191C0.506711 37.5324 0.738431 37.5324 0.922862 37.4191L6.87666 34.0127C7.25261 33.7892 7.48197 33.3943 7.48197 32.9639V25.72C7.48197 25.2878 7.71132 24.8885 8.08609 24.6736L10.6208 23.2151C10.809 23.1065 11.0157 23.0526 11.2261 23.0526C11.4333 23.0526 11.6447 23.106 11.8277 23.2149L14.3612 24.6729C14.7362 24.8878 14.9665 25.287 14.9665 25.7193V32.9627C14.9665 33.3926 15.199 33.7895 15.573 34.0115L21.523 37.4155C21.7098 37.5265 21.9423 37.5265 22.1283 37.4155C22.3118 37.3092 22.4282 37.1084 22.4282 36.8935L22.4476 21.3901ZM69.7062 29.4633C69.7062 29.5712 69.6487 29.6711 69.5549 29.7245L66.115 31.7055C66.0216 31.7591 65.9062 31.7591 65.8131 31.7055L62.3727 29.7245C62.2781 29.6709 62.2214 29.571 62.2214 29.4633V25.4956C62.2214 25.3874 62.2781 25.2878 62.3704 25.2334L65.8083 23.2491C65.9029 23.1948 66.0188 23.1948 66.1134 23.2491L69.5537 25.2334C69.6483 25.2878 69.705 25.3874 69.705 25.4956L69.7062 29.4633ZM70.6354 0.0764855C70.4477 -0.0279256 70.2193 -0.0250909 70.0339 0.0828636C69.8495 0.191527 69.7355 0.389955 69.7355 0.604919V15.9595C69.7355 16.1107 69.6551 16.2501 69.5241 16.3256C69.3941 16.4012 69.2321 16.4012 69.1009 16.3256L66.5922 14.8821C66.2186 14.6662 65.7584 14.6662 65.3834 14.8821L55.3651 20.6585C54.9908 20.8734 54.7598 21.2727 54.7598 21.7026V33.2587C54.7598 33.691 54.9908 34.0878 55.3651 34.3051L65.3834 40.0856C65.7575 40.3005 66.2181 40.3005 66.5933 40.0856L76.6117 34.3028C76.9853 34.0855 77.217 33.6886 77.217 33.2563V4.45585C77.217 4.01742 76.9782 3.61418 76.5951 3.39992L70.6354 0.0764855ZM103.997 25.3912C104.369 25.1753 104.598 24.7766 104.598 24.3466V21.546C104.598 21.1151 104.369 20.7175 103.996 20.5007L94.0413 14.7274C93.6654 14.51 93.2043 14.51 92.8283 14.7274L82.8123 20.503C82.4364 20.7204 82.207 21.1172 82.207 21.5495V33.1009C82.207 33.5355 82.4411 33.9371 82.8171 34.1521L92.7692 39.8191C93.1357 40.0293 93.585 40.0317 93.9562 39.8262L99.9762 36.4836C100.165 36.3773 100.286 36.1765 100.286 35.9592C100.286 35.7419 100.17 35.5387 99.9809 35.4324L89.9035 29.6544C89.7143 29.5481 89.5984 29.3473 89.5984 29.1323V25.5086C89.5984 25.2922 89.7119 25.0929 89.9011 24.9852L93.0364 23.178C93.2232 23.0694 93.4526 23.0694 93.6394 23.178L96.777 24.9852C96.9638 25.0915 97.0797 25.2922 97.0797 25.5072V28.3561C97.0797 28.571 97.1956 28.7718 97.3824 28.8805C97.5691 28.9868 97.8009 28.9868 97.9877 28.8781L103.997 25.3912Z" fill="#333333"/>
<path fill-rule="evenodd" clip-rule="evenodd" d="M93.2894 24.8517C93.3603 24.8099 93.4492 24.8099 93.5211 24.8517L95.4434 25.9596C95.5153 26.0011 95.5593 26.0777 95.5593 26.1604V28.3785C95.5593 28.4612 95.5153 28.5377 95.4434 28.5793L93.5211 29.6872C93.4492 29.729 93.3603 29.729 93.2894 29.6872L91.3682 28.5793C91.2949 28.5377 91.25 28.4612 91.25 28.3785V26.1604C91.25 26.0777 91.2926 26.0011 91.3659 25.9596L93.2894 24.8517Z" fill="#689F63"/>
<path d="M59.8338 19.5545L31.7638 5.80859L17.3711 35.1415L45.4405 48.8881L59.8338 19.5545Z" fill="url(#paint0_linear_893_300)"/>
<path d="M15.5488 23.6199L35.3692 50.4203L61.582 31.0721L41.7604 4.27246L15.5488 23.6199Z" fill="url(#paint1_linear_893_300)"/>
<path d="M28.0723 14.626V40.0035H49.7506V14.626H28.0723Z" fill="url(#paint2_linear_893_300)"/>
</g>
<defs>
<linearGradient id="paint0_linear_893_300" x1="2.59406" y1="5.80859" x2="70.492" y2="5.80859" gradientUnits="userSpaceOnUse">
<stop offset="0.3" stop-color="#3E863D"/>
<stop offset="0.5" stop-color="#55934F"/>
<stop offset="0.8" stop-color="#5AAD45"/>
</linearGradient>
<linearGradient id="paint1_linear_893_300" x1="-5.44228" y1="4.27246" x2="42.3401" y2="4.27246" gradientUnits="userSpaceOnUse">
<stop offset="0.57" stop-color="#3E863D"/>
<stop offset="0.72" stop-color="#619857"/>
<stop offset="1" stop-color="#76AC64"/>
</linearGradient>
<linearGradient id="paint2_linear_893_300" x1="29.0044" y1="14.626" x2="49.4038" y2="14.626" gradientUnits="userSpaceOnUse">
<stop offset="0.16" stop-color="#6BBF47"/>
<stop offset="0.38" stop-color="#79B461"/>
<stop offset="0.47" stop-color="#75AC64"/>
<stop offset="0.7" stop-color="#659E5A"/>
<stop offset="0.9" stop-color="#3E863D"/>
</linearGradient>
<clipPath id="clip0_893_300">
<rect width="104.598" height="64" fill="white"/>
</clipPath>
</defs>
</svg>
