<svg width="94" height="64" viewBox="0 0 94 64" fill="none" xmlns="http://www.w3.org/2000/svg">
<g clip-path="url(#clip0_893_317)">
<path d="M22.5596 58.2988H18.9389C18.8136 52.16 18.4654 46.3847 17.8805 40.987H17.8527L12.3381 58.2988H9.58085L4.09414 40.987H4.06629C3.66244 46.1749 3.39786 51.9502 3.30038 58.2988H0C0.208885 50.5798 0.751985 43.3362 1.60145 36.5681H6.08551L11.3076 52.5375H11.3355L16.5855 36.5681H20.8746C21.8354 44.4969 22.3924 51.7405 22.5596 58.2988Z" fill="#00758F"/>
<path d="M38.2691 42.2735C36.793 50.3141 34.8434 56.1454 32.4343 59.7811C30.5543 62.5919 28.4933 63.9902 26.2513 63.9902C25.6525 63.9902 24.9144 63.8084 24.0371 63.4449V61.5151C24.4688 61.571 24.9701 61.613 25.5411 61.613C26.5855 61.613 27.435 61.3193 28.0755 60.746C28.8415 60.0328 29.2314 59.2497 29.2314 58.3688C29.2314 57.7675 28.925 56.5369 28.3401 54.6631L24.3713 42.2735H27.9224L30.7771 51.5447C31.4177 53.6423 31.6823 55.1245 31.5848 55.9496C33.1445 51.7685 34.2307 47.2098 34.8573 42.2735H38.2691" fill="#00758F"/>
<path d="M54.1285 52.2842C54.1285 54.13 53.4601 55.6403 52.1093 56.8289C50.7585 58.0035 48.9621 58.5908 46.6922 58.5908C44.5756 58.5908 42.5285 57.9056 40.5371 56.5632L41.4701 54.7033C43.183 55.5564 44.7287 55.9899 46.1213 55.9899C47.4303 55.9899 48.4469 55.6962 49.1849 55.1229C49.923 54.5495 50.3686 53.7385 50.3686 52.7037C50.3686 51.4172 49.4774 50.3125 47.8341 49.3895C46.3162 48.5505 43.2805 46.8025 43.2805 46.8025C41.6372 45.5999 40.8156 44.3134 40.8156 42.1739C40.8156 40.412 41.4284 38.9856 42.6538 37.9089C43.8793 36.8182 45.4668 36.2868 47.4164 36.2868C49.4217 36.2868 51.2459 36.8182 52.8892 37.8949L52.0536 39.7547C50.6471 39.1534 49.2546 38.8598 47.8899 38.8598C46.7758 38.8598 45.9263 39.1255 45.3275 39.6708C44.7287 40.2022 44.3527 40.8874 44.3527 41.7264C44.3527 43.0129 45.2718 44.1317 46.9568 45.0686C48.4887 45.9076 51.5941 47.6835 51.5941 47.6835C53.293 48.8861 54.1285 50.1726 54.1285 52.2842Z" fill="#F29111"/>
<path fill-rule="evenodd" clip-rule="evenodd" d="M60.6045 53.9635C59.7272 52.5512 59.2955 50.2718 59.2955 47.1395C59.2955 41.6718 60.9527 38.931 64.267 38.931C65.9937 38.931 67.2749 39.5883 68.0826 40.8887C68.9599 42.3011 69.3916 44.5525 69.3916 47.6429C69.3916 53.1525 67.7345 55.9213 64.4202 55.9213C62.6934 55.9213 61.4122 55.264 60.6045 53.9635ZM73.4858 58.8299L69.503 56.8582C69.8512 56.5645 70.1993 56.2569 70.4917 55.8933C72.1767 53.8936 73.0262 50.9431 73.0262 47.0416C73.0262 39.854 70.2132 36.2601 64.6012 36.2601C61.8439 36.2601 59.6994 37.1691 58.1536 39.0009C56.4686 41.0006 55.6191 43.9372 55.6191 47.8247C55.6191 51.6422 56.3711 54.439 57.8612 56.2289C59.2259 57.837 61.2869 58.6481 64.0442 58.6481C65.0747 58.6481 66.0216 58.5222 66.8711 58.2705L72.0514 61.291L73.4858 58.8299Z" fill="#F29111"/>
<path d="M86.4649 58.2988H76.1738V36.5681H79.6413V55.6279H86.4649V58.2988Z" fill="#F29111"/>
<path d="M88.9419 58.2988H89.5129V56.0894H90.2649V55.6419H88.1621V56.0894H88.9419V58.2988ZM93.3007 58.2988H93.8438V55.6419H93.0361L92.3677 57.4598L91.6435 55.6419H90.8637V58.2988H91.3789V56.2712H91.4068L92.1588 58.2988H92.5487L93.3007 56.2712V58.2988Z" fill="#F29111"/>
<path fill-rule="evenodd" clip-rule="evenodd" d="M90.8103 29.2961C88.7214 29.2402 87.0921 29.45 85.7413 30.0373C85.3514 30.1911 84.7248 30.1911 84.6691 30.6945C84.8779 30.9043 84.9058 31.2399 85.0868 31.5335C85.3932 32.0649 85.9502 32.7641 86.4515 33.1277C86.9946 33.5472 87.5517 33.9667 88.1226 34.3303C89.1392 34.9595 90.295 35.3231 91.2837 35.9524C91.8547 36.316 92.4396 36.7914 93.0105 37.183C93.303 37.3927 93.484 37.7283 93.8461 37.8682V37.7843C93.665 37.5465 93.6093 37.2109 93.4283 36.9452C93.1637 36.6796 92.8991 36.4418 92.6485 36.1901C91.8965 35.1693 90.9495 34.2743 89.933 33.5332C89.0974 32.9599 87.2592 32.1628 86.925 31.1979C86.925 31.1979 86.8972 31.17 86.8693 31.142C87.4403 31.0861 88.1226 30.8763 88.6796 30.7225C89.5709 30.4848 90.3786 30.5407 91.2977 30.303C91.7154 30.1911 92.1332 30.0652 92.551 29.9394V29.7017C92.0775 29.2262 91.7433 28.597 91.242 28.1495C89.9051 26.9888 88.4429 25.8701 86.925 24.9192C86.1173 24.3879 85.0729 24.0522 84.2095 23.6048C83.9031 23.4509 83.374 23.367 83.1929 23.1013C82.7195 22.528 82.4549 21.7589 82.1207 21.0737C81.3687 19.6334 80.6306 18.0252 79.9761 16.501C79.5026 15.4802 79.2241 14.4594 78.6392 13.5085C75.9516 9.04768 73.0133 6.34883 68.5292 3.69192C67.5684 3.14656 66.4125 2.90884 65.1871 2.61518C64.5326 2.58721 63.8781 2.53127 63.2235 2.51729C62.8058 2.3355 62.388 1.83209 62.0259 1.59436C60.5359 0.643469 56.6924 -1.39815 55.5923 1.30071C54.8821 3.00672 56.6367 4.68477 57.2355 5.55177C57.6811 6.15307 58.2521 6.83827 58.5724 7.52347C58.7534 7.97095 58.8091 8.44639 58.9902 8.92184C59.4079 10.0825 59.7978 11.369 60.3549 12.4457C60.6473 12.9911 60.9537 13.5784 61.3157 14.0678C61.5246 14.3615 61.8867 14.4874 61.9702 14.9628C61.6082 15.4942 61.5803 16.2773 61.3714 16.9345C60.4245 19.8991 60.8005 23.5768 62.1234 25.7583C62.5412 26.4155 63.5299 27.8558 64.8668 27.3104C66.0365 26.835 65.7859 25.3387 66.1201 24.0243C66.2036 23.7026 66.1479 23.4929 66.3011 23.2831V23.3391C66.6632 24.0662 67.0392 24.7794 67.3734 25.5205C68.1811 26.807 69.6015 28.1495 70.7713 29.0304C71.3979 29.5059 71.8992 30.3169 72.6791 30.6106V30.5267H72.6234C72.4702 30.289 72.2334 30.1911 72.0246 30.0093C71.5511 29.5339 71.0358 28.9605 70.6598 28.4291C69.5597 26.9609 68.5989 25.3247 67.7355 23.6467C67.3177 22.8356 66.9556 21.9407 66.6075 21.1296C66.4543 20.822 66.4543 20.3465 66.1897 20.1787C65.7998 20.7521 65.2288 21.2555 64.9364 21.9547C64.4351 23.0874 64.3933 24.4717 64.1983 25.9261C64.1009 25.954 64.1426 25.9261 64.1009 25.982C63.2653 25.7722 62.9729 24.9052 62.6665 24.1781C61.8867 22.3183 61.7474 19.3257 62.4298 17.1722C62.6108 16.6269 63.4046 14.8929 63.0843 14.3615C62.9311 13.8581 62.4019 13.5784 62.1234 13.1729C61.7892 12.6695 61.4132 12.0402 61.1904 11.4949C60.5638 10.0266 60.2435 8.39045 59.575 6.92216C59.2547 6.23696 58.7116 5.52379 58.266 4.89452C57.7647 4.18135 57.2216 3.69192 56.8317 2.8529C56.7063 2.55924 56.5253 2.0838 56.7203 1.77616C56.776 1.5664 56.8735 1.4825 57.0823 1.44054C57.4166 1.14689 58.3913 1.52444 58.7256 1.67826C59.7004 2.06981 60.5081 2.44737 61.3157 2.99274C61.6778 3.25843 62.0677 3.74786 62.5412 3.8877H63.0982C63.9338 4.06949 64.8807 3.94363 65.6605 4.18135C67.0392 4.62883 68.3064 5.28607 69.4205 5.99924C72.8462 8.1807 75.6731 11.2711 77.5809 14.9768C77.9012 15.5781 78.0265 16.1374 78.319 16.7667C78.8621 18.0532 79.5444 19.3677 80.1014 20.6262C80.6445 21.8568 81.1737 23.1153 81.9535 24.1501C82.3435 24.6955 83.9171 24.9891 84.6134 25.2828C85.1286 25.5205 85.9502 25.7303 86.4237 26.01C87.3149 26.5553 88.2062 27.1846 89.0417 27.7999C89.4316 28.1215 90.7406 28.7787 90.8103 29.2961Z" fill="#00758F"/>
<path fill-rule="evenodd" clip-rule="evenodd" d="M64.1563 6.48879C63.7106 6.48879 63.4043 6.54473 63.084 6.61464V6.67058H63.1397C63.3486 7.0901 63.7106 7.38375 63.9752 7.74732C64.1841 8.16684 64.3651 8.58635 64.574 9.00586C64.6019 8.97789 64.6297 8.94992 64.6297 8.94992C64.9918 8.68423 65.1868 8.26471 65.1868 7.63545C65.0336 7.45366 65.0057 7.27188 64.8665 7.0901C64.6994 6.8244 64.3651 6.69854 64.1563 6.48879Z" fill="#00758F"/>
</g>
<defs>
<clipPath id="clip0_893_317">
<rect width="93.8667" height="64" fill="white"/>
</clipPath>
</defs>
</svg>
