<svg width="63" height="64" viewBox="0 0 63 64" fill="none" xmlns="http://www.w3.org/2000/svg">
<g clip-path="url(#clip0_893_329)">
<path d="M46.4256 46.591C46.8325 43.1996 46.7106 42.7023 49.2355 43.2517L49.8766 43.308C51.8181 43.3964 54.3579 42.9956 55.8499 42.3021C59.0619 40.8111 60.9665 38.3217 57.7994 38.9758C50.5749 40.4668 50.0782 38.0195 50.0782 38.0195C57.7069 26.6958 60.8958 12.3214 58.1432 8.80285C50.6354 -0.794495 37.6396 3.74387 37.4221 3.8617L37.3529 3.87449C35.9254 3.57819 34.3279 3.40116 32.5333 3.37213C29.2641 3.31839 26.7833 4.22957 24.9016 5.65748C24.9016 5.65748 1.71771 -3.89805 2.79626 17.6745C3.02565 22.2636 9.37145 52.3995 16.94 43.2971C19.7063 39.9686 22.3796 37.1543 22.3796 37.1543C23.7071 38.0366 25.2964 38.4867 26.9633 38.325L27.0922 38.2151C27.0518 38.6284 27.0696 39.0326 27.1437 39.5111C25.1943 41.6905 25.7671 42.0732 21.869 42.8759C17.9252 43.6891 20.2422 45.1368 21.7545 45.5152C23.5885 45.974 27.831 46.6239 30.6984 42.609L30.5842 43.0672C31.3491 43.6793 31.2974 47.467 31.4058 50.1732C31.5144 52.8796 31.6955 55.4051 32.2469 56.8941C32.7984 58.3828 33.449 62.218 38.5721 61.1196C42.8537 60.2017 46.1273 58.8805 46.4256 46.5909" fill="black"/>
<path d="M46.4256 46.591C46.8325 43.1996 46.7106 42.7023 49.2355 43.2517L49.8766 43.308C51.8181 43.3964 54.3579 42.9956 55.8499 42.3021C59.0619 40.8111 60.9665 38.3217 57.7994 38.9758C50.5749 40.4668 50.0782 38.0195 50.0782 38.0195C57.7069 26.6958 60.8958 12.3214 58.1432 8.80285C50.6354 -0.794495 37.6396 3.74387 37.4221 3.8617L37.3529 3.87449C35.9254 3.57819 34.3279 3.40116 32.5333 3.37213C29.2641 3.31839 26.7833 4.22957 24.9016 5.65748C24.9016 5.65748 1.71771 -3.89805 2.79626 17.6745C3.02565 22.2636 9.37145 52.3995 16.94 43.2971C19.7063 39.9686 22.3796 37.1543 22.3796 37.1543C23.7071 38.0366 25.2964 38.4867 26.9633 38.325L27.0922 38.2151C27.0518 38.6284 27.0696 39.0326 27.1437 39.5111C25.1943 41.6905 25.7671 42.0732 21.869 42.8759C17.9252 43.6891 20.2422 45.1368 21.7545 45.5152C23.5885 45.974 27.831 46.6239 30.6984 42.609L30.5842 43.0672C31.3491 43.6793 31.2974 47.467 31.4058 50.1732C31.5144 52.8796 31.6955 55.4051 32.2469 56.8941C32.7984 58.3828 33.449 62.218 38.5721 61.1196C42.8537 60.2017 46.1273 58.8805 46.4256 46.5909" stroke="black" stroke-width="10.3146"/>
<path d="M57.7988 38.9748C50.5737 40.4658 50.077 38.0185 50.077 38.0185C57.7056 26.694 60.8946 12.3193 58.1425 8.80122C50.6347 -0.795552 37.6383 3.7431 37.4214 3.86093L37.3516 3.87344C35.9242 3.57699 34.3267 3.40039 32.5312 3.37107C29.262 3.31747 26.7821 4.22851 24.9003 5.65614C24.9003 5.65614 1.71602 -3.89897 2.79429 17.6735C3.02368 22.2629 9.36934 52.3988 16.9382 43.2963C19.7046 39.9679 22.3775 37.1536 22.3775 37.1536C23.7051 38.0359 25.2945 38.4859 26.9606 38.3243L27.09 38.2143C27.0498 38.6276 27.0682 39.0318 27.1419 39.5103C25.192 41.6898 25.765 42.0724 21.8672 42.8751C17.9231 43.6883 20.2401 45.136 21.7528 45.5144C23.5868 45.9732 27.8296 46.6232 30.6964 42.6083L30.5821 43.0664C31.3461 43.6785 31.8826 47.0484 31.7927 50.1031C31.7027 53.1579 31.6427 55.2552 32.2447 56.8933C32.8467 58.5314 33.4466 62.2173 38.5707 61.1188C42.8523 60.2009 45.071 57.8222 45.3797 53.8543C45.5987 51.0334 46.0944 51.4504 46.1257 48.9283L46.5233 47.7344C46.9818 43.9105 46.5961 42.6768 49.234 43.2506L49.875 43.3069C51.8166 43.3953 54.3576 42.9945 55.849 42.3011C59.0604 40.8101 60.965 38.3207 57.7985 38.9748H57.7988Z" fill="#336791"/>
<path d="M31.0077 41.167C30.8088 48.2823 31.0577 55.4471 31.7536 57.1884C32.4499 58.9298 33.9401 62.3167 39.0646 61.2184C43.3458 60.3002 44.9035 58.5232 45.5795 54.601C46.0773 51.7153 47.0371 43.7011 47.1602 42.0591" stroke="white" stroke-width="3.43819" stroke-linecap="round" stroke-linejoin="round"/>
<path d="M24.865 5.49709C24.865 5.49709 1.66495 -3.98918 2.7435 17.5833C2.97289 22.1726 9.31898 52.3095 16.8877 43.2067C19.6535 39.8778 22.1549 37.267 22.1549 37.267" stroke="white" stroke-width="3.43819" stroke-linecap="round" stroke-linejoin="round"/>
<path d="M37.3971 3.76601C36.594 4.01791 50.3024 -1.24742 58.093 8.71161C60.8449 12.2299 57.6559 26.6046 50.0275 37.9293" stroke="white" stroke-width="3.43819" stroke-linecap="round" stroke-linejoin="round"/>
<path d="M50.0263 37.9297C50.0263 37.9297 50.5234 40.3777 57.7487 38.8857C60.9144 38.2316 59.0092 40.7212 55.7986 42.213C53.1636 43.4364 47.256 43.7499 47.1595 42.0593C46.9111 37.6974 50.2687 39.0226 50.0264 37.9297C49.8074 36.9453 48.3058 35.9793 47.3126 33.5702C46.4455 31.4675 35.4202 15.3424 50.3702 17.7373C50.9178 17.6239 46.471 3.51103 32.48 3.28154C18.492 3.05206 18.951 20.4909 18.951 20.4909" stroke="white" stroke-width="3.43819" stroke-linecap="round" stroke-linejoin="bevel"/>
<path d="M27.0901 39.4216C25.14 41.6009 25.7135 41.9835 21.8154 42.7865C17.8713 43.5998 20.1886 45.0473 21.7009 45.4255C23.5349 45.8846 27.7777 46.5345 30.6445 42.5187C31.5175 41.2959 30.6393 39.345 29.4401 38.8476C28.8607 38.6075 28.0859 38.3066 27.0901 39.4216V39.4216Z" stroke="white" stroke-width="3.43819" stroke-linecap="round" stroke-linejoin="round"/>
<path d="M26.9635 39.3831C26.767 38.1018 27.3843 36.577 28.0459 34.7931C29.0402 32.1167 31.3342 29.4397 29.4991 20.9496C28.1312 14.6227 18.9568 19.6329 18.9511 20.4907C18.9455 21.3483 19.366 24.839 18.7978 28.9039C18.0564 34.2082 22.1715 38.6942 26.9102 38.2353" stroke="white" stroke-width="3.43819" stroke-linecap="round" stroke-linejoin="round"/>
<path d="M24.7814 20.3625C24.74 20.6555 25.3176 21.4374 26.0707 21.5419C26.8224 21.6468 27.4659 21.0358 27.5067 20.7431C27.5475 20.4501 26.9707 20.1273 26.2173 20.0224C25.4651 19.9174 24.8213 20.0703 24.7815 20.3625H24.7814Z" fill="white" stroke="white" stroke-width="1.14605"/>
<path d="M47.6795 19.7658C47.7202 20.0588 47.1434 20.8407 46.3902 20.9451C45.6378 21.05 44.9943 20.439 44.9531 20.1463C44.9133 19.8533 45.4903 19.5306 46.2428 19.4257C46.9953 19.3208 47.6387 19.4735 47.6795 19.766V19.7658Z" fill="white" stroke="white" stroke-width="0.573026"/>
<path d="M50.3713 17.7373C50.4953 20.0356 49.8765 21.601 49.7985 24.0476C49.683 27.6038 51.4933 31.6741 48.7656 35.7495" stroke="white" stroke-width="3.43819" stroke-linecap="round" stroke-linejoin="round"/>
</g>
<defs>
<clipPath id="clip0_893_329">
<rect width="62.0606" height="64" fill="white"/>
</clipPath>
</defs>
</svg>
