<svg width="61" height="60" viewBox="0 0 61 60" fill="none" xmlns="http://www.w3.org/2000/svg">
<path fill-rule="evenodd" clip-rule="evenodd" d="M30.0077 50.2134L30.1673 59.9999C28.7068 60.0006 27.3033 59.4324 26.2547 58.4157L25.4906 57.5059L6.92522 35.429L0.610406 27.913C0.593818 27.9041 0.580529 27.8901 0.572497 27.8731L0.472737 27.7574L0.452785 27.7315C0.329291 27.5686 0.230465 27.3884 0.15949 27.1967C0.0650466 26.9617 0.0130313 26.7117 0.00585938 26.4585V26.3069C0.00585938 26.259 0.00984978 26.2091 0.0198258 26.1612C0.063485 25.6697 0.271543 25.2072 0.610406 24.8484C1.01543 24.4095 1.60402 24.1301 2.25046 24.1301H8.48547L30.0057 50.2174L30.0097 50.2134H30.0077Z" fill="#FCD1CA"/>
<path fill-rule="evenodd" clip-rule="evenodd" d="M29.9999 38.4774V50.6063L0.562647 15.4788C0.385849 15.2808 0.246575 15.0522 0.151635 14.8044C0.05842 14.5669 0.00711372 14.3151 0 14.0602V13.9105C0.0150885 13.3683 0.230453 12.8508 0.604546 12.458C1.00758 12.0131 1.59616 11.7397 2.2446 11.7397H7.82718L29.9999 38.4754V38.4774Z" fill="#FF9D8D"/>
<path fill-rule="evenodd" clip-rule="evenodd" d="M2.23649 0.00203933C1.92964 0.000385408 1.62584 0.0630991 1.34472 0.186132C1.0636 0.309164 0.811409 0.489782 0.60442 0.716322C0.245284 1.09342 0.021821 1.60419 0.00585938 2.16085V2.30849C0.011845 2.57385 0.0637202 2.82126 0.157495 3.04672C0.15949 3.06866 0.169466 3.08662 0.177447 3.10657C0.274882 3.34122 0.414149 3.5562 0.588458 3.74105L0.620381 3.77696L30.0037 38.4775V59.9998C31.456 60.0029 32.852 59.4387 33.8944 58.4275C33.9003 58.4275 33.9003 58.4235 33.9003 58.4235L59.4389 28.1045C59.4709 28.0725 59.4988 28.0366 59.5267 28.0007C59.6624 27.8331 59.7701 27.6436 59.8499 27.4361C59.9497 27.1887 60.0016 26.9173 60.0016 26.628V2.23068C60.0041 1.6652 59.7882 1.12057 59.399 0.710336C59.1911 0.484662 58.9384 0.304907 58.657 0.182592C58.3756 0.0602763 58.0718 -0.00190099 57.765 4.42735e-05H2.23849L2.23649 0.00203933Z" fill="#FF6661"/>
</svg>
