<svg width="199" height="200" viewBox="0 0 199 200" fill="none" xmlns="http://www.w3.org/2000/svg">
<g style="mix-blend-mode:difference">
<path d="M108.828 56.9624V125.369C108.828 135.265 112.759 144.755 119.757 151.753C126.754 158.75 136.245 162.681 146.141 162.681C147.79 162.681 149.372 162.026 150.538 160.86C151.704 159.693 152.359 158.112 152.359 156.462C152.359 154.813 151.704 153.231 150.538 152.065C149.372 150.899 147.79 150.244 146.141 150.244C139.55 150.223 133.235 147.596 128.574 142.935C123.913 138.275 121.286 131.96 121.266 125.369V119.15H167.906C171.205 119.15 174.368 117.84 176.701 115.507C179.033 113.175 180.344 110.011 180.344 106.712V56.9624C180.344 53.6638 179.033 50.5002 176.701 48.1678C174.368 45.8353 171.205 44.5249 167.906 44.5249H121.266C117.967 44.5249 114.803 45.8353 112.471 48.1678C110.139 50.5002 108.828 53.6638 108.828 56.9624ZM31.0938 44.5249H77.7344C81.033 44.5249 84.1965 45.8353 86.529 48.1678C88.8615 50.5002 90.1719 53.6638 90.1719 56.9624V106.712C90.1719 110.011 88.8615 113.175 86.529 115.507C84.1965 117.84 81.033 119.15 77.7344 119.15H31.0938V125.369C31.1143 131.96 33.7416 138.275 38.4021 142.935C43.0626 147.596 49.3778 150.223 55.9688 150.244C57.6181 150.244 59.1998 150.899 60.3661 152.065C61.5323 153.231 62.1875 154.813 62.1875 156.462C62.1875 158.112 61.5323 159.693 60.3661 160.86C59.1998 162.026 57.6181 162.681 55.9688 162.681C46.0729 162.681 36.5823 158.75 29.5848 151.753C22.5874 144.755 18.6562 135.265 18.6562 125.369V56.9624C18.6562 53.6638 19.9666 50.5002 22.2991 48.1678C24.6316 45.8353 27.7951 44.5249 31.0938 44.5249V44.5249Z" fill="#121212"/>
</g>
</svg>
