<svg width="173" height="173" viewBox="0 0 173 173" fill="none" xmlns="http://www.w3.org/2000/svg">
<g style="mix-blend-mode:difference">
<path d="M94.0661 49.3705V108.498C94.0661 117.051 97.464 125.254 103.512 131.303C109.561 137.351 117.764 140.749 126.317 140.749C127.743 140.749 129.11 140.183 130.118 139.175C131.126 138.166 131.692 136.799 131.692 135.374C131.692 133.948 131.126 132.581 130.118 131.573C129.11 130.565 127.743 129.998 126.317 129.998C120.62 129.981 115.162 127.71 111.133 123.681C107.105 119.653 104.834 114.195 104.816 108.498V103.122H145.13C147.982 103.122 150.716 101.99 152.732 99.9738C154.748 97.9577 155.881 95.2233 155.881 92.3721V49.3705C155.881 46.5193 154.748 43.7849 152.732 41.7688C150.716 39.7527 147.982 38.6201 145.13 38.6201H104.816C101.965 38.6201 99.2309 39.7527 97.2148 41.7688C95.1987 43.7849 94.0661 46.5193 94.0661 49.3705ZM26.8761 38.6201H67.1901C70.0413 38.6201 72.7757 39.7527 74.7918 41.7688C76.8079 43.7849 77.9405 46.5193 77.9405 49.3705V92.3721C77.9405 95.2233 76.8079 97.9577 74.7918 99.9738C72.7757 101.99 70.0413 103.122 67.1901 103.122H26.8761V108.498C26.8938 114.195 29.1648 119.653 33.1931 123.681C37.2215 127.71 42.68 129.981 48.3769 129.998C49.8025 129.998 51.1697 130.565 52.1777 131.573C53.1858 132.581 53.7521 133.948 53.7521 135.374C53.7521 136.799 53.1858 138.166 52.1777 139.175C51.1697 140.183 49.8025 140.749 48.3769 140.749C39.8233 140.749 31.6201 137.351 25.5719 131.303C19.5236 125.254 16.1257 117.051 16.1257 108.498V49.3705C16.1257 46.5193 17.2583 43.7849 19.2744 41.7688C21.2905 39.7527 24.0249 38.6201 26.8761 38.6201V38.6201Z" fill="#121212"/>
</g>
</svg>
