<svg width="212" height="150" viewBox="0 0 212 150" fill="none" xmlns="http://www.w3.org/2000/svg">
<path d="M167.781 74.7106C167.781 66.5214 157.532 58.7606 141.819 53.9479C145.445 37.9224 143.834 25.1725 136.733 21.0905C135.096 20.133 133.182 19.6795 131.092 19.6795V25.2985C132.25 25.2985 133.182 25.5253 133.963 25.9536C137.387 27.919 138.873 35.4027 137.715 45.0281C137.438 47.3966 136.984 49.8912 136.43 52.4361C131.495 51.2266 126.106 50.2943 120.44 49.6896C117.041 45.0281 113.515 40.7949 109.965 37.0909C118.174 29.4561 125.879 25.2733 131.117 25.2733V19.6543C124.192 19.6543 115.127 24.593 105.961 33.1601C96.7952 24.6434 87.73 19.7551 80.8052 19.7551V25.3741C86.0177 25.3741 93.7483 29.5317 101.957 37.1161C98.432 40.8201 94.9066 45.0281 91.5575 49.6896C85.8666 50.2943 80.4778 51.2266 75.5423 52.4613C74.9632 49.9415 74.5351 47.4974 74.2329 45.154C73.0494 35.5286 74.5099 28.045 77.9094 26.0544C78.6648 25.6009 79.6469 25.3993 80.8052 25.3993V19.7803C78.69 19.7803 76.7762 20.2338 75.1143 21.1913C68.0384 25.2733 66.452 37.998 70.1032 53.9731C54.4405 58.811 44.2422 66.5466 44.2422 74.7106C44.2422 82.8997 54.4909 90.6605 70.2039 95.4732C66.5779 111.499 68.1895 124.249 75.2905 128.331C76.9273 129.288 78.8411 129.742 80.9563 129.742C87.8811 129.742 96.9463 124.803 106.112 116.236C115.278 124.753 124.343 129.641 131.268 129.641C133.383 129.641 135.297 129.187 136.959 128.23C144.035 124.148 145.621 111.423 141.97 95.448C157.582 90.6353 167.781 82.8745 167.781 74.7106ZM134.995 57.9039C134.063 61.1544 132.905 64.5056 131.596 67.8569C130.563 65.8411 129.48 63.8253 128.297 61.8095C127.138 59.7937 125.905 57.8283 124.671 55.9133C128.246 56.4425 131.696 57.0976 134.995 57.9039ZM123.462 84.7391C121.498 88.1408 119.483 91.366 117.393 94.3645C113.641 94.6921 109.839 94.8685 106.012 94.8685C102.209 94.8685 98.4068 94.6921 94.68 94.3897C92.59 91.3912 90.5503 88.1912 88.5862 84.8147C86.6724 81.5139 84.9349 78.1626 83.3485 74.7862C84.9097 71.4097 86.6724 68.0333 88.561 64.7324C90.5251 61.3308 92.5396 58.1055 94.6296 55.107C98.3816 54.7794 102.184 54.6031 106.012 54.6031C109.814 54.6031 113.616 54.7794 117.343 55.0818C119.433 58.0803 121.473 61.2804 123.437 64.6568C125.351 67.9577 127.088 71.3089 128.675 74.6854C127.088 78.0618 125.351 81.4383 123.462 84.7391ZM131.596 81.4635C132.955 84.8399 134.114 88.2164 135.071 91.492C131.772 92.2983 128.297 92.9787 124.696 93.5078C125.93 91.5676 127.164 89.577 128.322 87.536C129.48 85.5202 130.563 83.4793 131.596 81.4635ZM106.062 108.349C103.72 105.93 101.378 103.234 99.0615 100.286C101.328 100.387 103.644 100.462 105.986 100.462C108.353 100.462 110.695 100.412 112.987 100.286C110.72 103.234 108.379 105.93 106.062 108.349ZM87.3271 93.5078C83.7514 92.9787 80.3016 92.3235 77.0028 91.5172C77.9345 88.2668 79.0929 84.9155 80.4023 81.5643C81.4347 83.5801 82.5175 85.5958 83.701 87.6116C84.8845 89.6274 86.0932 91.5928 87.3271 93.5078ZM105.936 41.0721C108.278 43.491 110.62 46.1871 112.936 49.1352C110.67 49.0344 108.353 48.9589 106.012 48.9589C103.644 48.9589 101.303 49.0092 99.0112 49.1352C101.277 46.1871 103.619 43.491 105.936 41.0721ZM87.3019 55.9133C86.0681 57.8535 84.8342 59.8441 83.6758 61.8851C82.5175 63.9009 81.4347 65.9167 80.4023 67.9325C79.0425 64.556 77.8842 61.1796 76.9273 57.9039C80.226 57.1228 83.701 56.4425 87.3019 55.9133ZM64.513 87.4605C55.5989 83.6556 49.8324 78.6666 49.8324 74.7106C49.8324 70.7546 55.5989 65.7403 64.513 61.9607C66.6786 61.0284 69.0456 60.1969 71.4882 59.4158C72.9235 64.3545 74.8121 69.4947 77.1539 74.761C74.8373 80.002 72.9739 85.1171 71.5637 90.0306C69.0708 89.2495 66.7038 88.3928 64.513 87.4605ZM78.0605 123.468C74.6358 121.502 73.1501 114.018 74.3085 104.393C74.5855 102.025 75.0387 99.53 75.5927 96.9851C80.5282 98.1945 85.917 99.1268 91.5827 99.7316C94.9822 104.393 98.5075 108.626 102.058 112.33C93.849 119.965 86.1436 124.148 80.9059 124.148C79.7728 124.123 78.8159 123.896 78.0605 123.468ZM137.79 104.267C138.974 113.892 137.513 121.376 134.114 123.367C133.358 123.82 132.376 124.022 131.218 124.022C126.005 124.022 118.275 119.864 110.066 112.28C113.591 108.576 117.116 104.368 120.465 99.7064C126.156 99.1016 131.545 98.1693 136.481 96.9347C137.06 99.4796 137.513 101.924 137.79 104.267ZM147.485 87.4605C145.319 88.3928 142.952 89.2243 140.51 90.0054C139.074 85.0667 137.186 79.9264 134.844 74.6602C137.161 69.4191 139.024 64.3041 140.434 59.3906C142.927 60.1717 145.294 61.0284 147.51 61.9607C156.424 65.7655 162.191 70.7546 162.191 74.7106C162.165 78.6666 156.399 83.6808 147.485 87.4605Z" fill="#61DAFB"/>
<path d="M105.988 86.2257C112.344 86.2257 117.496 81.0702 117.496 74.7105C117.496 68.3508 112.344 63.1953 105.988 63.1953C99.6327 63.1953 94.4805 68.3508 94.4805 74.7105C94.4805 81.0702 99.6327 86.2257 105.988 86.2257Z" fill="#61DAFB"/>
</svg>
