<svg width="91" height="64" viewBox="0 0 91 64" fill="none" xmlns="http://www.w3.org/2000/svg">
<path d="M71.5848 31.8774C71.5848 28.3834 67.212 25.0721 60.5078 23.0187C62.0549 16.1811 61.3673 10.7412 58.3375 8.99952C57.6392 8.59099 56.8226 8.39747 55.9309 8.39747V10.7949C56.4251 10.7949 56.8226 10.8917 57.1557 11.0744C58.6169 11.913 59.2508 15.106 58.7566 19.2129C58.6384 20.2234 58.445 21.2878 58.2086 22.3736C56.1028 21.8576 53.8036 21.4598 51.3862 21.2018C49.9358 19.2129 48.4316 17.4067 46.9167 15.8263C50.4192 12.5688 53.7069 10.7842 55.9416 10.7842V8.38672C52.987 8.38672 49.1192 10.4939 45.2084 14.1492C41.2976 10.5154 37.4298 8.42972 34.4752 8.42972V10.8272C36.6992 10.8272 39.9976 12.6011 43.5001 15.8371C41.996 17.4175 40.4918 19.2129 39.0629 21.2018C36.6348 21.4598 34.3355 21.8576 32.2297 22.3844C31.9826 21.3093 31.8 20.2664 31.671 19.2666C31.1661 15.1598 31.7892 11.9668 33.2397 11.1174C33.562 10.9239 33.981 10.8379 34.4752 10.8379V8.44047C33.5727 8.44047 32.7562 8.63399 32.0471 9.04252C29.028 10.7842 28.3512 16.2134 29.909 23.0294C23.2263 25.0936 18.875 28.3941 18.875 31.8774C18.875 35.3714 23.2478 38.6827 29.952 40.7361C28.4049 47.5737 29.0925 53.0136 32.1223 54.7553C32.8206 55.1638 33.6372 55.3573 34.5397 55.3573C37.4943 55.3573 41.3621 53.2502 45.2729 49.5949C49.1837 53.2287 53.0515 55.3143 56.0061 55.3143C56.9086 55.3143 57.7251 55.1208 58.4342 54.7123C61.4533 52.9706 62.1301 47.5414 60.5723 40.7254C67.2335 38.672 71.5848 35.3607 71.5848 31.8774ZM57.5962 24.7066C57.1987 26.0934 56.7045 27.5233 56.1458 28.9532C55.7053 28.0931 55.2433 27.233 54.7383 26.3729C54.2441 25.5129 53.7176 24.6743 53.1912 23.8572C54.7168 24.083 56.1887 24.3625 57.5962 24.7066ZM52.6755 36.1562C51.8374 37.6076 50.9779 38.9837 50.0862 40.2631C48.4853 40.4028 46.863 40.4781 45.2299 40.4781C43.6076 40.4781 41.9852 40.4028 40.3951 40.2738C39.5034 38.9945 38.6331 37.6291 37.7951 36.1885C36.9786 34.7801 36.2372 33.3503 35.5604 31.9096C36.2265 30.469 36.9786 29.0284 37.7844 27.62C38.6224 26.1687 39.4819 24.7926 40.3736 23.5132C41.9745 23.3734 43.5968 23.2982 45.2299 23.2982C46.8523 23.2982 48.4746 23.3735 50.0647 23.5025C50.9564 24.7818 51.8267 26.1472 52.6647 27.5878C53.4813 28.9962 54.2226 30.426 54.8995 31.8666C54.2226 33.3073 53.4813 34.7479 52.6755 36.1562ZM56.1458 34.7586C56.7259 36.1993 57.2202 37.6399 57.6284 39.0375C56.221 39.3815 54.7383 39.6718 53.2019 39.8976C53.7284 39.0697 54.2548 38.2204 54.7491 37.3496C55.2433 36.4895 55.7053 35.6187 56.1458 34.7586ZM45.2514 46.2298C44.2522 45.1977 43.253 44.0474 42.2646 42.7895C43.2315 42.8325 44.22 42.8648 45.2192 42.8648C46.2291 42.8648 47.2283 42.8433 48.206 42.7895C47.239 44.0474 46.2398 45.1977 45.2514 46.2298ZM37.2579 39.8976C35.7323 39.6718 34.2603 39.3923 32.8529 39.0482C33.2504 37.6614 33.7446 36.2315 34.3033 34.8016C34.7438 35.6617 35.2058 36.5218 35.7108 37.3819C36.2157 38.2419 36.7314 39.0805 37.2579 39.8976ZM45.1977 17.525C46.1969 18.5571 47.1961 19.7074 48.1845 20.9653C47.2175 20.9222 46.2291 20.89 45.2299 20.89C44.22 20.89 43.2208 20.9115 42.2431 20.9653C43.2101 19.7074 44.2092 18.5571 45.1977 17.525ZM37.2472 23.8572C36.7207 24.6851 36.1942 25.5344 35.7 26.4052C35.2058 27.2653 34.7438 28.1253 34.3033 28.9854C33.7231 27.5448 33.2289 26.1042 32.8206 24.7066C34.2281 24.3733 35.7108 24.083 37.2472 23.8572ZM27.5239 37.3173C23.7205 35.694 21.2602 33.5653 21.2602 31.8774C21.2602 30.1895 23.7205 28.0501 27.5239 26.4375C28.4479 26.0397 29.4578 25.6849 30.5 25.3516C31.1124 27.4588 31.9182 29.652 32.9173 31.8989C31.9289 34.1351 31.1339 36.3175 30.5322 38.4139C29.4685 38.0807 28.4586 37.7151 27.5239 37.3173ZM33.3041 52.6804C31.843 51.8418 31.2091 48.6488 31.7033 44.5419C31.8215 43.5314 32.0149 42.467 32.2512 41.3812C34.357 41.8972 36.6562 42.295 39.0736 42.553C40.5241 44.5419 42.0282 46.3481 43.5431 47.9285C40.0406 51.186 36.7529 52.9706 34.5182 52.9706C34.0347 52.9599 33.6264 52.8631 33.3041 52.6804ZM58.7888 44.4882C59.2937 48.595 58.6706 51.788 57.2202 52.6374C56.8978 52.8309 56.4788 52.9169 55.9846 52.9169C53.7606 52.9169 50.4622 51.143 46.9597 47.907C48.4638 46.3266 49.968 44.5312 51.3969 42.5423C53.8251 42.2843 56.1243 41.8865 58.2301 41.3597C58.4772 42.4455 58.6706 43.4884 58.7888 44.4882ZM62.9252 37.3173C62.0012 37.7151 60.9913 38.0699 59.9491 38.4032C59.3367 36.296 58.5309 34.1028 57.5317 31.8559C58.5202 29.6197 59.3152 27.4373 59.9169 25.3409C60.9805 25.6741 61.9905 26.0397 62.9359 26.4375C66.7393 28.0608 69.1997 30.1895 69.1997 31.8774C69.1889 33.5653 66.7286 35.7047 62.9252 37.3173Z" fill="#61DAFB"/>
<path d="M45.2205 36.7902C47.9322 36.7902 50.1305 34.5905 50.1305 31.877C50.1305 29.1636 47.9322 26.9639 45.2205 26.9639C42.5088 26.9639 40.3105 29.1636 40.3105 31.877C40.3105 34.5905 42.5088 36.7902 45.2205 36.7902Z" fill="#61DAFB"/>
</svg>
