<svg width="136" height="64" viewBox="0 0 136 64" fill="none" xmlns="http://www.w3.org/2000/svg">
<path d="M52.1868 31.6172C50.4809 31.6172 49.0938 32.123 48.0304 33.1343C46.967 34.1465 46.4276 35.4732 46.4276 37.0988C46.4276 37.9413 46.5616 38.7094 46.8256 39.4133C47.0895 40.1186 47.5003 40.7719 48.0526 41.3623C48.6048 41.9532 49.7102 42.7559 51.3577 43.7764C53.3793 45.0128 54.7022 46.0162 55.3372 46.7996C55.9725 47.5824 56.2878 48.4028 56.2878 49.258C56.2878 50.4032 55.9115 51.3173 55.1382 52.0044C54.3635 52.6918 53.3275 53.0343 52.0431 53.0343C50.6883 53.0343 49.5081 52.5558 48.4947 51.6057C47.4813 50.6542 46.9697 49.3958 46.9582 47.8184H46.3281V53.5437H46.9582C47.1505 53.0015 47.4167 52.7242 47.7651 52.7242C47.9327 52.7242 48.3254 52.84 48.9369 53.0564C50.4247 53.5868 51.6464 53.8427 52.6068 53.8427C54.2618 53.8427 55.6745 53.262 56.8516 52.0819C58.0268 50.9024 58.6202 49.4795 58.6202 47.8184C58.6202 46.5304 58.2284 45.3844 57.4595 44.3855C56.6906 43.3854 55.1952 42.2221 52.9605 40.8861C51.0376 39.7287 49.7894 38.786 49.2132 38.0512C48.6362 37.3174 48.34 36.5056 48.34 35.6149C48.34 34.6515 48.6932 33.8776 49.3901 33.3004C50.0869 32.7228 51 32.4367 52.1425 32.4367C53.4283 32.4367 54.5001 32.8189 55.3482 33.5884C56.1954 34.3591 56.6853 35.4272 56.8294 36.7998H57.4595V31.8387H56.8737C56.802 32.0916 56.7357 32.2533 56.6747 32.3259C56.6154 32.3981 56.5014 32.4367 56.332 32.4367C56.1282 32.4367 55.7647 32.3507 55.2487 32.182C54.1433 31.809 53.1241 31.6172 52.1868 31.6172ZM72.7804 31.6172C70.7018 31.6172 68.8147 32.108 67.1097 33.09C65.4021 34.0703 64.0504 35.4315 63.0529 37.1653C62.0558 38.8989 61.5606 40.7401 61.5606 42.7022C61.5606 45.3384 62.4219 47.6869 64.1583 49.7453C65.8955 51.8024 67.9772 53.0843 70.3927 53.5769C70.945 53.8652 71.7351 54.6093 72.7693 55.8138C73.9349 57.1731 74.9209 58.1536 75.7318 58.7374C76.5419 59.3215 77.4165 59.7496 78.3406 60.033C79.2656 60.3152 80.2657 60.4538 81.3473 60.4538C82.6569 60.4538 83.8296 60.2258 84.8624 59.7562L84.6303 59.1803C84.0307 59.397 83.3914 59.5015 82.718 59.5015C81.804 59.5015 80.8803 59.1996 79.9545 58.5934C79.0299 57.9858 77.8736 56.8264 76.4945 55.1162C75.8463 54.2967 75.3989 53.7797 75.146 53.5769C77.7888 53.0599 79.962 51.7767 81.6568 49.7231C83.3511 47.6705 84.1992 45.3278 84.1992 42.7022C84.1992 39.5847 83.092 36.9647 80.894 34.8286C78.6943 32.6923 75.9892 31.6172 72.7804 31.6172ZM85.6362 31.6172L85.6694 32.2927C87.0533 32.2927 87.8284 32.7011 88.0018 33.5219C88.0663 33.8156 88.0959 34.3579 88.1013 35.1387L88.0902 50.0775C88.0787 51.1932 87.92 51.9056 87.6149 52.2148C87.3094 52.5218 86.7929 52.714 86.0452 52.7906L86.0121 53.4662H99.8075L100.161 50.0775H99.5312C99.3512 51.0006 98.9387 51.6619 98.282 52.0376C97.6237 52.416 96.4595 52.6024 94.7779 52.6024H93.4735C91.9605 52.6024 91.085 52.0544 90.8537 50.9524C90.806 50.7343 90.7896 50.5006 90.7874 50.2436L90.8427 35.1387C90.8423 34.0248 90.9829 33.2783 91.2738 32.9128C91.5678 32.5487 92.098 32.345 92.8656 32.2927L92.8324 31.6172H85.6363H85.6362ZM73.0015 32.4367C75.3458 32.4367 77.2599 33.3617 78.7385 35.2273C80.2167 37.0936 80.9493 39.6515 80.9493 42.8905C80.9493 45.9597 80.206 48.4173 78.7164 50.2658C77.2268 52.1137 75.2441 53.0343 72.7804 53.0343C70.4135 53.0343 68.4941 52.085 67.0213 50.1772C65.5497 48.2694 64.8215 45.7924 64.8215 42.7465C64.8215 39.6166 65.5586 37.1111 67.0434 35.2384C68.5273 33.3677 70.5143 32.4367 73.0015 32.4367ZM104.727 35.6481C104.39 35.6481 104.134 35.762 103.942 35.9914C103.745 36.22 103.685 36.4968 103.754 36.833C103.82 37.1592 104.004 37.445 104.295 37.6857C104.585 37.9262 104.899 38.0512 105.235 38.0512C105.56 38.0512 105.808 37.9262 105.987 37.6857C106.165 37.445 106.219 37.1592 106.152 36.833C106.084 36.4968 105.907 36.22 105.633 35.9914C105.356 35.762 105.052 35.6481 104.727 35.6481ZM113.824 37.9404C113.252 40.1438 112.013 41.3362 110.11 41.5284L110.132 42.1596H112.354L112.31 49.6235C112.313 50.8996 112.352 51.7492 112.442 52.1816C112.661 53.2168 113.336 53.743 114.465 53.743C116.099 53.743 117.813 52.746 119.605 50.753L119.064 50.2879C117.769 51.6004 116.625 52.2591 115.626 52.2591C115.012 52.2591 114.631 51.9053 114.487 51.2071C114.448 51.0375 114.432 50.8394 114.432 50.6091L114.454 42.1596H117.848L117.815 41.1519H114.465V37.9404H113.824H113.824ZM126.945 40.7532C125.047 40.7532 123.503 41.6764 122.302 43.5106C121.108 45.348 120.738 47.3837 121.208 49.6235C121.484 50.9354 122.035 51.9522 122.877 52.6688C123.718 53.3852 124.785 53.743 126.061 53.743C127.248 53.743 128.902 53.4418 129.598 52.8349C130.296 52.2285 130.939 51.246 131.533 49.9003L131.057 49.402C130.11 51.1477 128.199 52.0265 126.757 52.0265C124.775 52.0265 123.562 50.9373 123.109 48.7708C123.051 48.4942 123.007 48.1972 122.977 47.8849C125.334 47.5109 127.121 46.8487 128.327 45.8916C129.532 44.9338 130.741 43.9187 130.516 42.8462C130.381 42.2089 130.051 41.7078 129.543 41.3291C129.028 40.9505 127.692 40.7532 126.945 40.7532ZM106.197 40.8307L102.107 41.772V42.5029L103.522 42.3257C104.207 42.3257 104.61 42.6366 104.738 43.2559C104.78 43.4632 104.807 43.7543 104.815 44.1197L104.771 50.8195C104.759 51.7466 104.657 52.2855 104.45 52.4473C104.242 52.6095 103.693 52.691 102.803 52.691L102.781 53.3222H109.27L109.259 52.691C108.357 52.691 107.773 52.6197 107.512 52.4806C107.256 52.3423 107.08 52.0907 107.004 51.7054C106.945 51.4277 106.919 50.9492 106.915 50.2879L106.937 40.8307H106.197H106.197ZM125.906 42.071C126.301 42.071 126.682 42.2238 127.067 42.5251C127.446 42.8253 127.676 43.1591 127.752 43.5217C128.122 45.3029 126.546 46.5343 122.999 47.2204C122.898 45.9216 123.122 44.7426 123.695 43.6768C124.264 42.6119 125.004 42.071 125.906 42.071Z" fill="#003B57"/>
<path d="M43.0244 6.03711H7.82625C5.46723 6.03711 3.53711 7.97107 3.53711 10.3343V49.2213C3.53711 51.5844 5.46723 53.518 7.82625 53.518H31.0087C30.7455 41.9624 34.6845 19.5364 43.0244 6.03711Z" fill="#0F80CC"/>
<path d="M41.7466 7.29004H7.82719C6.15216 7.29004 4.78906 8.65524 4.78906 10.3336V46.3835C12.4711 43.4298 24.0008 40.8812 31.973 40.997C33.575 32.6052 38.2833 16.1592 41.7466 7.29004V7.29004Z" fill="url(#paint0_linear_893_359)"/>
<path d="M51.2343 4.76376C48.8236 2.61009 45.9049 3.47519 43.0243 6.03638C42.5967 6.41688 42.17 6.83902 41.7455 7.28995C36.8177 12.5271 32.2435 22.2279 30.8224 29.6364C31.376 30.761 31.8084 32.1962 32.0932 33.2926C32.1661 33.5738 32.232 33.8378 32.2846 34.0624C32.4097 34.5939 32.477 34.9386 32.477 34.9386C32.477 34.9386 32.4327 34.7711 32.2515 34.2445C32.217 34.1435 32.1785 34.0332 32.133 33.9034C32.1135 33.8498 32.0865 33.7847 32.0569 33.7151C31.7355 32.9665 30.8463 31.3865 30.455 30.6986C30.1202 31.6877 29.8244 32.6131 29.5768 33.4503C30.7065 35.521 31.395 39.0697 31.395 39.0697C31.395 39.0697 31.3353 38.8397 31.0514 38.0371C30.7994 37.3271 29.5441 35.1238 29.2467 34.6086C28.7381 36.4898 28.536 37.7598 28.7182 38.0691C29.0721 38.6683 29.4091 39.7021 29.7051 40.8455C30.3736 43.4213 30.8383 46.5569 30.8383 46.5569C30.8383 46.5569 30.8533 46.7647 30.8785 47.0845C30.7857 49.2476 30.8414 51.4902 31.0085 53.5173C31.2301 56.2006 31.647 58.5058 32.1785 59.7394L32.5393 59.5424C31.7589 57.1118 31.4419 53.9265 31.5807 50.253C31.7907 44.638 33.0805 37.8666 35.4638 30.8089C39.4901 20.1548 45.0763 11.6066 50.189 7.52428C45.5291 11.7404 39.2221 25.3875 37.3341 30.4412C35.2201 36.1005 33.7221 41.4112 32.8192 46.4993C34.3769 41.7292 39.4136 39.6788 39.4136 39.6788C39.4136 39.6788 41.8839 36.6267 44.7708 32.2662C43.0415 32.6613 40.2019 33.3377 39.2509 33.7382C37.8479 34.3278 37.4698 34.5289 37.4698 34.5289C37.4698 34.5289 42.0144 31.7564 45.9133 30.501C51.2754 22.0405 57.1173 10.0212 51.2343 4.76376" fill="#003B57"/>
<defs>
<linearGradient id="paint0_linear_893_359" x1="-572.291" y1="-348.785" x2="-244.342" y2="-348.785" gradientUnits="userSpaceOnUse">
<stop stop-color="#97D9F6"/>
<stop offset="0.920245" stop-color="#0F80CC"/>
<stop offset="1" stop-color="#0F80CC"/>
</linearGradient>
</defs>
</svg>
